M48
; DRILL file {KiCad 9.0.7} date 2026-02-15T11:49:38+0100
; FORMAT={-:-/ absolute / metric / decimal}
; #@! TF.CreationDate,2026-02-15T11:49:38+01:00
; #@! TF.GenerationSoftware,Kicad,Pcbnew,9.0.7
; #@! TF.FileFunction,NonPlated,1,2,NPTH
FMAT,2
METRIC
; #@! TA.AperFunction,NonPlated,NPTH,ComponentDrill
T1C0.991
; #@! TA.AperFunction,NonPlated,NPTH,ComponentDrill
T2C1.200
; #@! TA.AperFunction,NonPlated,NPTH,ComponentDrill
T3C1.702
; #@! TA.AperFunction,NonPlated,NPTH,ComponentDrill
T4C3.429
%
G90
G05
T1
X38.78Y-38.57
X38.78Y-55.57
X38.78Y-72.575
X49.22Y-38.57
X49.22Y-55.57
X49.22Y-72.575
X56.78Y-26.34
X56.78Y-43.34
X56.78Y-60.345
X67.22Y-26.34
X67.22Y-43.34
X67.22Y-60.345
X74.78Y-19.53
X74.78Y-36.52
X74.78Y-53.52
X85.22Y-19.53
X85.22Y-36.52
X85.22Y-53.52
X92.78Y-25.14
X92.78Y-42.14
X92.78Y-59.145
X101.811Y-86.476
X103.22Y-25.14
X103.22Y-42.14
X103.22Y-59.145
X110.78Y-27.52
X110.78Y-44.52
X110.78Y-61.52
X111.895Y-89.178
X119.879Y-92.507
X121.22Y-27.52
X121.22Y-44.52
X121.22Y-61.52
X128.921Y-97.727
T2
X133.52Y-77.33
X133.52Y-79.08
X140.52Y-77.33
X140.52Y-79.08
T3
X38.5Y-42.77
X38.5Y-59.77
X38.5Y-76.775
X49.5Y-42.77
X49.5Y-59.77
X49.5Y-76.775
X56.5Y-30.54
X56.5Y-47.54
X56.5Y-64.545
X67.5Y-30.54
X67.5Y-47.54
X67.5Y-64.545
X74.5Y-23.73
X74.5Y-40.72
X74.5Y-57.72
X85.5Y-23.73
X85.5Y-40.72
X85.5Y-57.72
X92.5Y-29.34
X92.5Y-46.34
X92.5Y-63.345
X102.627Y-82.346
X103.5Y-29.34
X103.5Y-46.34
X103.5Y-63.345
X110.5Y-31.72
X110.5Y-48.72
X110.5Y-65.72
X113.253Y-85.194
X121.5Y-31.72
X121.5Y-48.72
X121.5Y-65.72
X121.737Y-88.73
X131.263Y-94.23
T4
X44.0Y-42.77
X44.0Y-59.77
X44.0Y-76.775
X62.0Y-30.54
X62.0Y-47.54
X62.0Y-64.545
X80.0Y-23.73
X80.0Y-40.72
X80.0Y-57.72
X98.0Y-29.34
X98.0Y-46.34
X98.0Y-63.345
X107.94Y-83.77
X116.0Y-31.72
X116.0Y-48.72
X116.0Y-65.72
X126.5Y-91.48
M30
