M48
; DRILL file {KiCad 9.0.7} date 2026-02-15T11:49:38+0100
; FORMAT={-:-/ absolute / metric / decimal}
; #@! TF.CreationDate,2026-02-15T11:49:38+01:00
; #@! TF.GenerationSoftware,Kicad,Pcbnew,9.0.7
; #@! TF.FileFunction,Plated,1,2,PTH
FMAT,2
METRIC
; #@! TA.AperFunction,Plated,PTH,ViaDrill
T1C0.400
; #@! TA.AperFunction,Plated,PTH,ComponentDrill
T2C0.813
; #@! TA.AperFunction,Plated,PTH,ComponentDrill
T3C1.000
; #@! TA.AperFunction,Plated,PTH,ComponentDrill
T4C1.270
; #@! TA.AperFunction,Plated,PTH,ComponentDrill
T5C1.300
%
G90
G05
T1
X121.92Y-41.294
X122.9Y-42.4
X125.73Y-39.77
X131.318Y-69.742
X136.398Y-73.044
T2
X126.691Y-42.422
X126.691Y-44.962
X126.691Y-47.502
X126.691Y-50.042
X126.691Y-52.582
X126.691Y-55.122
X126.691Y-57.662
X126.691Y-60.202
X126.691Y-62.742
X126.691Y-65.282
X126.691Y-67.822
X126.691Y-70.362
X141.911Y-42.422
X141.911Y-44.962
X141.911Y-47.502
X141.911Y-50.042
X141.911Y-52.582
X141.911Y-55.122
X141.911Y-57.662
X141.911Y-60.202
X141.911Y-62.742
X141.911Y-65.282
X141.911Y-67.822
X141.911Y-70.362
T4
X39.0Y-46.57
X39.0Y-63.57
X39.0Y-80.575
X44.0Y-48.67
X44.0Y-65.67
X44.0Y-82.675
X49.0Y-46.57
X49.0Y-63.57
X49.0Y-80.575
X57.0Y-34.34
X57.0Y-51.34
X57.0Y-68.345
X62.0Y-36.44
X62.0Y-53.44
X62.0Y-70.445
X67.0Y-34.34
X67.0Y-51.34
X67.0Y-68.345
X75.0Y-27.53
X75.0Y-44.52
X75.0Y-61.52
X80.0Y-29.63
X80.0Y-46.62
X80.0Y-63.62
X85.0Y-27.53
X85.0Y-44.52
X85.0Y-61.52
X93.0Y-33.14
X93.0Y-50.14
X93.0Y-67.145
X98.0Y-35.24
X98.0Y-52.24
X98.0Y-69.245
X103.0Y-33.14
X103.0Y-50.14
X103.0Y-67.145
X104.094Y-78.805
X109.467Y-78.071
X111.0Y-35.52
X111.0Y-52.52
X111.0Y-69.52
X113.753Y-81.394
X116.0Y-37.62
X116.0Y-54.62
X116.0Y-71.62
X121.0Y-35.52
X121.0Y-52.52
X121.0Y-69.52
X124.07Y-85.689
X129.45Y-86.37
X132.73Y-90.689
T5
X126.97Y-74.39
X126.97Y-80.89
T3
G00X130.47Y-76.98
M15
G01X129.97Y-76.98
M16
G05
G00X130.47Y-79.43
M15
G01X129.97Y-79.43
M16
G05
G00X131.97Y-75.23
M15
G01X131.47Y-75.23
M16
G05
G00X131.97Y-81.18
M15
G01X131.47Y-81.18
M16
G05
G00X135.97Y-75.23
M15
G01X135.47Y-75.23
M16
G05
G00X135.97Y-81.18
M15
G01X135.47Y-81.18
M16
G05
G00X138.97Y-75.23
M15
G01X138.47Y-75.23
M16
G05
G00X138.97Y-81.18
M15
G01X138.47Y-81.18
M16
G05
M30
