G04 #@! TF.GenerationSoftware,KiCad,Pcbnew,9.0.7*
G04 #@! TF.CreationDate,2026-02-15T11:49:42+01:00*
G04 #@! TF.ProjectId,ferris-sweep-compact,66657272-6973-42d7-9377-6565702d636f,0.1*
G04 #@! TF.SameCoordinates,Original*
G04 #@! TF.FileFunction,Legend,Top*
G04 #@! TF.FilePolarity,Positive*
%FSLAX46Y46*%
G04 Gerber Fmt 4.6, Leading zero omitted, Abs format (unit mm)*
G04 Created by KiCad (PCBNEW 9.0.7) date 2026-02-15 11:49:42*
%MOMM*%
%LPD*%
G01*
G04 APERTURE LIST*
%ADD10C,0.400000*%
%ADD11C,0.300000*%
%ADD12C,0.120000*%
%ADD13C,0.125000*%
%ADD14C,0.150000*%
%ADD15C,1.524000*%
%ADD16C,2.000000*%
%ADD17C,1.200000*%
%ADD18O,2.500000X1.700000*%
%ADD19C,1.390600*%
%ADD20C,2.432000*%
%ADD21C,3.829000*%
%ADD22C,2.101800*%
%ADD23C,1.924000*%
%ADD24C,2.400000*%
%ADD25C,1.600000*%
%ADD26O,2.900000X2.100000*%
G04 APERTURE END LIST*
D10*
X57739347Y-75901104D02*
X59263157Y-76472533D01*
X59263157Y-76472533D02*
X57739347Y-77043961D01*
X61739347Y-77234438D02*
X61739347Y-75234438D01*
X61739347Y-76186819D02*
X62882204Y-76186819D01*
X62882204Y-77234438D02*
X62882204Y-75234438D01*
X64596490Y-77139200D02*
X64406014Y-77234438D01*
X64406014Y-77234438D02*
X64025061Y-77234438D01*
X64025061Y-77234438D02*
X63834585Y-77139200D01*
X63834585Y-77139200D02*
X63739347Y-76948723D01*
X63739347Y-76948723D02*
X63739347Y-76186819D01*
X63739347Y-76186819D02*
X63834585Y-75996342D01*
X63834585Y-75996342D02*
X64025061Y-75901104D01*
X64025061Y-75901104D02*
X64406014Y-75901104D01*
X64406014Y-75901104D02*
X64596490Y-75996342D01*
X64596490Y-75996342D02*
X64691728Y-76186819D01*
X64691728Y-76186819D02*
X64691728Y-76377295D01*
X64691728Y-76377295D02*
X63739347Y-76567771D01*
X65834585Y-77234438D02*
X65644109Y-77139200D01*
X65644109Y-77139200D02*
X65548871Y-76948723D01*
X65548871Y-76948723D02*
X65548871Y-75234438D01*
X66882204Y-77234438D02*
X66691728Y-77139200D01*
X66691728Y-77139200D02*
X66596490Y-76948723D01*
X66596490Y-76948723D02*
X66596490Y-75234438D01*
X67929823Y-77234438D02*
X67739347Y-77139200D01*
X67739347Y-77139200D02*
X67644109Y-77043961D01*
X67644109Y-77043961D02*
X67548871Y-76853485D01*
X67548871Y-76853485D02*
X67548871Y-76282057D01*
X67548871Y-76282057D02*
X67644109Y-76091580D01*
X67644109Y-76091580D02*
X67739347Y-75996342D01*
X67739347Y-75996342D02*
X67929823Y-75901104D01*
X67929823Y-75901104D02*
X68215538Y-75901104D01*
X68215538Y-75901104D02*
X68406014Y-75996342D01*
X68406014Y-75996342D02*
X68501252Y-76091580D01*
X68501252Y-76091580D02*
X68596490Y-76282057D01*
X68596490Y-76282057D02*
X68596490Y-76853485D01*
X68596490Y-76853485D02*
X68501252Y-77043961D01*
X68501252Y-77043961D02*
X68406014Y-77139200D01*
X68406014Y-77139200D02*
X68215538Y-77234438D01*
X68215538Y-77234438D02*
X67929823Y-77234438D01*
X69548871Y-77139200D02*
X69548871Y-77234438D01*
X69548871Y-77234438D02*
X69453633Y-77424914D01*
X69453633Y-77424914D02*
X69358395Y-77520152D01*
X71644110Y-75901104D02*
X72406014Y-75901104D01*
X71929824Y-77234438D02*
X71929824Y-75520152D01*
X71929824Y-75520152D02*
X72025062Y-75329676D01*
X72025062Y-75329676D02*
X72215538Y-75234438D01*
X72215538Y-75234438D02*
X72406014Y-75234438D01*
X73072681Y-77234438D02*
X73072681Y-75901104D01*
X73072681Y-76282057D02*
X73167919Y-76091580D01*
X73167919Y-76091580D02*
X73263157Y-75996342D01*
X73263157Y-75996342D02*
X73453633Y-75901104D01*
X73453633Y-75901104D02*
X73644110Y-75901104D01*
X74310776Y-77234438D02*
X74310776Y-75901104D01*
X74310776Y-75234438D02*
X74215538Y-75329676D01*
X74215538Y-75329676D02*
X74310776Y-75424914D01*
X74310776Y-75424914D02*
X74406014Y-75329676D01*
X74406014Y-75329676D02*
X74310776Y-75234438D01*
X74310776Y-75234438D02*
X74310776Y-75424914D01*
X76025062Y-77139200D02*
X75834586Y-77234438D01*
X75834586Y-77234438D02*
X75453633Y-77234438D01*
X75453633Y-77234438D02*
X75263157Y-77139200D01*
X75263157Y-77139200D02*
X75167919Y-76948723D01*
X75167919Y-76948723D02*
X75167919Y-76186819D01*
X75167919Y-76186819D02*
X75263157Y-75996342D01*
X75263157Y-75996342D02*
X75453633Y-75901104D01*
X75453633Y-75901104D02*
X75834586Y-75901104D01*
X75834586Y-75901104D02*
X76025062Y-75996342D01*
X76025062Y-75996342D02*
X76120300Y-76186819D01*
X76120300Y-76186819D02*
X76120300Y-76377295D01*
X76120300Y-76377295D02*
X75167919Y-76567771D01*
X76977443Y-75901104D02*
X76977443Y-77234438D01*
X76977443Y-76091580D02*
X77072681Y-75996342D01*
X77072681Y-75996342D02*
X77263157Y-75901104D01*
X77263157Y-75901104D02*
X77548872Y-75901104D01*
X77548872Y-75901104D02*
X77739348Y-75996342D01*
X77739348Y-75996342D02*
X77834586Y-76186819D01*
X77834586Y-76186819D02*
X77834586Y-77234438D01*
X79644110Y-77234438D02*
X79644110Y-75234438D01*
X79644110Y-77139200D02*
X79453634Y-77234438D01*
X79453634Y-77234438D02*
X79072681Y-77234438D01*
X79072681Y-77234438D02*
X78882205Y-77139200D01*
X78882205Y-77139200D02*
X78786967Y-77043961D01*
X78786967Y-77043961D02*
X78691729Y-76853485D01*
X78691729Y-76853485D02*
X78691729Y-76282057D01*
X78691729Y-76282057D02*
X78786967Y-76091580D01*
X78786967Y-76091580D02*
X78882205Y-75996342D01*
X78882205Y-75996342D02*
X79072681Y-75901104D01*
X79072681Y-75901104D02*
X79453634Y-75901104D01*
X79453634Y-75901104D02*
X79644110Y-75996342D01*
X80596491Y-77043961D02*
X80691729Y-77139200D01*
X80691729Y-77139200D02*
X80596491Y-77234438D01*
X80596491Y-77234438D02*
X80501253Y-77139200D01*
X80501253Y-77139200D02*
X80596491Y-77043961D01*
X80596491Y-77043961D02*
X80596491Y-77234438D01*
D11*
X134393471Y-67387999D02*
X134464900Y-67459427D01*
X134464900Y-67459427D02*
X134536328Y-67673713D01*
X134536328Y-67673713D02*
X134536328Y-67816570D01*
X134536328Y-67816570D02*
X134464900Y-68030856D01*
X134464900Y-68030856D02*
X134322042Y-68173713D01*
X134322042Y-68173713D02*
X134179185Y-68245142D01*
X134179185Y-68245142D02*
X133893471Y-68316570D01*
X133893471Y-68316570D02*
X133679185Y-68316570D01*
X133679185Y-68316570D02*
X133393471Y-68245142D01*
X133393471Y-68245142D02*
X133250614Y-68173713D01*
X133250614Y-68173713D02*
X133107757Y-68030856D01*
X133107757Y-68030856D02*
X133036328Y-67816570D01*
X133036328Y-67816570D02*
X133036328Y-67673713D01*
X133036328Y-67673713D02*
X133107757Y-67459427D01*
X133107757Y-67459427D02*
X133179185Y-67387999D01*
X134536328Y-66530856D02*
X134464900Y-66673713D01*
X134464900Y-66673713D02*
X134393471Y-66745142D01*
X134393471Y-66745142D02*
X134250614Y-66816570D01*
X134250614Y-66816570D02*
X133822042Y-66816570D01*
X133822042Y-66816570D02*
X133679185Y-66745142D01*
X133679185Y-66745142D02*
X133607757Y-66673713D01*
X133607757Y-66673713D02*
X133536328Y-66530856D01*
X133536328Y-66530856D02*
X133536328Y-66316570D01*
X133536328Y-66316570D02*
X133607757Y-66173713D01*
X133607757Y-66173713D02*
X133679185Y-66102285D01*
X133679185Y-66102285D02*
X133822042Y-66030856D01*
X133822042Y-66030856D02*
X134250614Y-66030856D01*
X134250614Y-66030856D02*
X134393471Y-66102285D01*
X134393471Y-66102285D02*
X134464900Y-66173713D01*
X134464900Y-66173713D02*
X134536328Y-66316570D01*
X134536328Y-66316570D02*
X134536328Y-66530856D01*
X133536328Y-65387999D02*
X134536328Y-65387999D01*
X133679185Y-65387999D02*
X133607757Y-65316570D01*
X133607757Y-65316570D02*
X133536328Y-65173713D01*
X133536328Y-65173713D02*
X133536328Y-64959427D01*
X133536328Y-64959427D02*
X133607757Y-64816570D01*
X133607757Y-64816570D02*
X133750614Y-64745142D01*
X133750614Y-64745142D02*
X134536328Y-64745142D01*
X133536328Y-64245141D02*
X133536328Y-63673713D01*
X133036328Y-64030856D02*
X134322042Y-64030856D01*
X134322042Y-64030856D02*
X134464900Y-63959427D01*
X134464900Y-63959427D02*
X134536328Y-63816570D01*
X134536328Y-63816570D02*
X134536328Y-63673713D01*
X134536328Y-63173713D02*
X133536328Y-63173713D01*
X133822042Y-63173713D02*
X133679185Y-63102284D01*
X133679185Y-63102284D02*
X133607757Y-63030856D01*
X133607757Y-63030856D02*
X133536328Y-62887998D01*
X133536328Y-62887998D02*
X133536328Y-62745141D01*
X134536328Y-62030856D02*
X134464900Y-62173713D01*
X134464900Y-62173713D02*
X134393471Y-62245142D01*
X134393471Y-62245142D02*
X134250614Y-62316570D01*
X134250614Y-62316570D02*
X133822042Y-62316570D01*
X133822042Y-62316570D02*
X133679185Y-62245142D01*
X133679185Y-62245142D02*
X133607757Y-62173713D01*
X133607757Y-62173713D02*
X133536328Y-62030856D01*
X133536328Y-62030856D02*
X133536328Y-61816570D01*
X133536328Y-61816570D02*
X133607757Y-61673713D01*
X133607757Y-61673713D02*
X133679185Y-61602285D01*
X133679185Y-61602285D02*
X133822042Y-61530856D01*
X133822042Y-61530856D02*
X134250614Y-61530856D01*
X134250614Y-61530856D02*
X134393471Y-61602285D01*
X134393471Y-61602285D02*
X134464900Y-61673713D01*
X134464900Y-61673713D02*
X134536328Y-61816570D01*
X134536328Y-61816570D02*
X134536328Y-62030856D01*
X134536328Y-60673713D02*
X134464900Y-60816570D01*
X134464900Y-60816570D02*
X134322042Y-60887999D01*
X134322042Y-60887999D02*
X133036328Y-60887999D01*
X134536328Y-59887999D02*
X134464900Y-60030856D01*
X134464900Y-60030856D02*
X134322042Y-60102285D01*
X134322042Y-60102285D02*
X133036328Y-60102285D01*
X134464900Y-58745142D02*
X134536328Y-58887999D01*
X134536328Y-58887999D02*
X134536328Y-59173714D01*
X134536328Y-59173714D02*
X134464900Y-59316571D01*
X134464900Y-59316571D02*
X134322042Y-59387999D01*
X134322042Y-59387999D02*
X133750614Y-59387999D01*
X133750614Y-59387999D02*
X133607757Y-59316571D01*
X133607757Y-59316571D02*
X133536328Y-59173714D01*
X133536328Y-59173714D02*
X133536328Y-58887999D01*
X133536328Y-58887999D02*
X133607757Y-58745142D01*
X133607757Y-58745142D02*
X133750614Y-58673714D01*
X133750614Y-58673714D02*
X133893471Y-58673714D01*
X133893471Y-58673714D02*
X134036328Y-59387999D01*
X134536328Y-58030857D02*
X133536328Y-58030857D01*
X133822042Y-58030857D02*
X133679185Y-57959428D01*
X133679185Y-57959428D02*
X133607757Y-57888000D01*
X133607757Y-57888000D02*
X133536328Y-57745142D01*
X133536328Y-57745142D02*
X133536328Y-57602285D01*
X133750614Y-55459429D02*
X133750614Y-55959429D01*
X134536328Y-55959429D02*
X133036328Y-55959429D01*
X133036328Y-55959429D02*
X133036328Y-55245143D01*
X134536328Y-54030858D02*
X133750614Y-54030858D01*
X133750614Y-54030858D02*
X133607757Y-54102286D01*
X133607757Y-54102286D02*
X133536328Y-54245143D01*
X133536328Y-54245143D02*
X133536328Y-54530858D01*
X133536328Y-54530858D02*
X133607757Y-54673715D01*
X134464900Y-54030858D02*
X134536328Y-54173715D01*
X134536328Y-54173715D02*
X134536328Y-54530858D01*
X134536328Y-54530858D02*
X134464900Y-54673715D01*
X134464900Y-54673715D02*
X134322042Y-54745143D01*
X134322042Y-54745143D02*
X134179185Y-54745143D01*
X134179185Y-54745143D02*
X134036328Y-54673715D01*
X134036328Y-54673715D02*
X133964900Y-54530858D01*
X133964900Y-54530858D02*
X133964900Y-54173715D01*
X133964900Y-54173715D02*
X133893471Y-54030858D01*
X134464900Y-52673715D02*
X134536328Y-52816572D01*
X134536328Y-52816572D02*
X134536328Y-53102286D01*
X134536328Y-53102286D02*
X134464900Y-53245143D01*
X134464900Y-53245143D02*
X134393471Y-53316572D01*
X134393471Y-53316572D02*
X134250614Y-53388000D01*
X134250614Y-53388000D02*
X133822042Y-53388000D01*
X133822042Y-53388000D02*
X133679185Y-53316572D01*
X133679185Y-53316572D02*
X133607757Y-53245143D01*
X133607757Y-53245143D02*
X133536328Y-53102286D01*
X133536328Y-53102286D02*
X133536328Y-52816572D01*
X133536328Y-52816572D02*
X133607757Y-52673715D01*
X134464900Y-51459429D02*
X134536328Y-51602286D01*
X134536328Y-51602286D02*
X134536328Y-51888001D01*
X134536328Y-51888001D02*
X134464900Y-52030858D01*
X134464900Y-52030858D02*
X134322042Y-52102286D01*
X134322042Y-52102286D02*
X133750614Y-52102286D01*
X133750614Y-52102286D02*
X133607757Y-52030858D01*
X133607757Y-52030858D02*
X133536328Y-51888001D01*
X133536328Y-51888001D02*
X133536328Y-51602286D01*
X133536328Y-51602286D02*
X133607757Y-51459429D01*
X133607757Y-51459429D02*
X133750614Y-51388001D01*
X133750614Y-51388001D02*
X133893471Y-51388001D01*
X133893471Y-51388001D02*
X134036328Y-52102286D01*
X134536328Y-49602287D02*
X133036328Y-49602287D01*
X133036328Y-49602287D02*
X133036328Y-49245144D01*
X133036328Y-49245144D02*
X133107757Y-49030858D01*
X133107757Y-49030858D02*
X133250614Y-48888001D01*
X133250614Y-48888001D02*
X133393471Y-48816572D01*
X133393471Y-48816572D02*
X133679185Y-48745144D01*
X133679185Y-48745144D02*
X133893471Y-48745144D01*
X133893471Y-48745144D02*
X134179185Y-48816572D01*
X134179185Y-48816572D02*
X134322042Y-48888001D01*
X134322042Y-48888001D02*
X134464900Y-49030858D01*
X134464900Y-49030858D02*
X134536328Y-49245144D01*
X134536328Y-49245144D02*
X134536328Y-49602287D01*
X134536328Y-47888001D02*
X134464900Y-48030858D01*
X134464900Y-48030858D02*
X134393471Y-48102287D01*
X134393471Y-48102287D02*
X134250614Y-48173715D01*
X134250614Y-48173715D02*
X133822042Y-48173715D01*
X133822042Y-48173715D02*
X133679185Y-48102287D01*
X133679185Y-48102287D02*
X133607757Y-48030858D01*
X133607757Y-48030858D02*
X133536328Y-47888001D01*
X133536328Y-47888001D02*
X133536328Y-47673715D01*
X133536328Y-47673715D02*
X133607757Y-47530858D01*
X133607757Y-47530858D02*
X133679185Y-47459430D01*
X133679185Y-47459430D02*
X133822042Y-47388001D01*
X133822042Y-47388001D02*
X134250614Y-47388001D01*
X134250614Y-47388001D02*
X134393471Y-47459430D01*
X134393471Y-47459430D02*
X134464900Y-47530858D01*
X134464900Y-47530858D02*
X134536328Y-47673715D01*
X134536328Y-47673715D02*
X134536328Y-47888001D01*
X133536328Y-46888001D02*
X134536328Y-46602287D01*
X134536328Y-46602287D02*
X133822042Y-46316572D01*
X133822042Y-46316572D02*
X134536328Y-46030858D01*
X134536328Y-46030858D02*
X133536328Y-45745144D01*
X133536328Y-45173715D02*
X134536328Y-45173715D01*
X133679185Y-45173715D02*
X133607757Y-45102286D01*
X133607757Y-45102286D02*
X133536328Y-44959429D01*
X133536328Y-44959429D02*
X133536328Y-44745143D01*
X133536328Y-44745143D02*
X133607757Y-44602286D01*
X133607757Y-44602286D02*
X133750614Y-44530858D01*
X133750614Y-44530858D02*
X134536328Y-44530858D01*
D12*
X131803571Y-38290724D02*
X131803571Y-37540724D01*
X131803571Y-37540724D02*
X132053571Y-38076438D01*
X132053571Y-38076438D02*
X132303571Y-37540724D01*
X132303571Y-37540724D02*
X132303571Y-38290724D01*
X132660714Y-38290724D02*
X132660714Y-37790724D01*
X132660714Y-37540724D02*
X132625000Y-37576438D01*
X132625000Y-37576438D02*
X132660714Y-37612152D01*
X132660714Y-37612152D02*
X132696428Y-37576438D01*
X132696428Y-37576438D02*
X132660714Y-37540724D01*
X132660714Y-37540724D02*
X132660714Y-37612152D01*
X133339286Y-38255010D02*
X133267857Y-38290724D01*
X133267857Y-38290724D02*
X133125000Y-38290724D01*
X133125000Y-38290724D02*
X133053571Y-38255010D01*
X133053571Y-38255010D02*
X133017857Y-38219295D01*
X133017857Y-38219295D02*
X132982143Y-38147867D01*
X132982143Y-38147867D02*
X132982143Y-37933581D01*
X132982143Y-37933581D02*
X133017857Y-37862152D01*
X133017857Y-37862152D02*
X133053571Y-37826438D01*
X133053571Y-37826438D02*
X133125000Y-37790724D01*
X133125000Y-37790724D02*
X133267857Y-37790724D01*
X133267857Y-37790724D02*
X133339286Y-37826438D01*
X133660714Y-38290724D02*
X133660714Y-37790724D01*
X133660714Y-37933581D02*
X133696428Y-37862152D01*
X133696428Y-37862152D02*
X133732143Y-37826438D01*
X133732143Y-37826438D02*
X133803571Y-37790724D01*
X133803571Y-37790724D02*
X133875000Y-37790724D01*
X134232143Y-38290724D02*
X134160714Y-38255010D01*
X134160714Y-38255010D02*
X134125000Y-38219295D01*
X134125000Y-38219295D02*
X134089286Y-38147867D01*
X134089286Y-38147867D02*
X134089286Y-37933581D01*
X134089286Y-37933581D02*
X134125000Y-37862152D01*
X134125000Y-37862152D02*
X134160714Y-37826438D01*
X134160714Y-37826438D02*
X134232143Y-37790724D01*
X134232143Y-37790724D02*
X134339286Y-37790724D01*
X134339286Y-37790724D02*
X134410714Y-37826438D01*
X134410714Y-37826438D02*
X134446429Y-37862152D01*
X134446429Y-37862152D02*
X134482143Y-37933581D01*
X134482143Y-37933581D02*
X134482143Y-38147867D01*
X134482143Y-38147867D02*
X134446429Y-38219295D01*
X134446429Y-38219295D02*
X134410714Y-38255010D01*
X134410714Y-38255010D02*
X134339286Y-38290724D01*
X134339286Y-38290724D02*
X134232143Y-38290724D01*
X134803571Y-37540724D02*
X134803571Y-38147867D01*
X134803571Y-38147867D02*
X134839285Y-38219295D01*
X134839285Y-38219295D02*
X134875000Y-38255010D01*
X134875000Y-38255010D02*
X134946428Y-38290724D01*
X134946428Y-38290724D02*
X135089285Y-38290724D01*
X135089285Y-38290724D02*
X135160714Y-38255010D01*
X135160714Y-38255010D02*
X135196428Y-38219295D01*
X135196428Y-38219295D02*
X135232142Y-38147867D01*
X135232142Y-38147867D02*
X135232142Y-37540724D01*
X135553571Y-38255010D02*
X135660714Y-38290724D01*
X135660714Y-38290724D02*
X135839285Y-38290724D01*
X135839285Y-38290724D02*
X135910714Y-38255010D01*
X135910714Y-38255010D02*
X135946428Y-38219295D01*
X135946428Y-38219295D02*
X135982142Y-38147867D01*
X135982142Y-38147867D02*
X135982142Y-38076438D01*
X135982142Y-38076438D02*
X135946428Y-38005010D01*
X135946428Y-38005010D02*
X135910714Y-37969295D01*
X135910714Y-37969295D02*
X135839285Y-37933581D01*
X135839285Y-37933581D02*
X135696428Y-37897867D01*
X135696428Y-37897867D02*
X135624999Y-37862152D01*
X135624999Y-37862152D02*
X135589285Y-37826438D01*
X135589285Y-37826438D02*
X135553571Y-37755010D01*
X135553571Y-37755010D02*
X135553571Y-37683581D01*
X135553571Y-37683581D02*
X135589285Y-37612152D01*
X135589285Y-37612152D02*
X135624999Y-37576438D01*
X135624999Y-37576438D02*
X135696428Y-37540724D01*
X135696428Y-37540724D02*
X135874999Y-37540724D01*
X135874999Y-37540724D02*
X135982142Y-37576438D01*
X136553571Y-37897867D02*
X136660714Y-37933581D01*
X136660714Y-37933581D02*
X136696428Y-37969295D01*
X136696428Y-37969295D02*
X136732142Y-38040724D01*
X136732142Y-38040724D02*
X136732142Y-38147867D01*
X136732142Y-38147867D02*
X136696428Y-38219295D01*
X136696428Y-38219295D02*
X136660714Y-38255010D01*
X136660714Y-38255010D02*
X136589285Y-38290724D01*
X136589285Y-38290724D02*
X136303571Y-38290724D01*
X136303571Y-38290724D02*
X136303571Y-37540724D01*
X136303571Y-37540724D02*
X136553571Y-37540724D01*
X136553571Y-37540724D02*
X136625000Y-37576438D01*
X136625000Y-37576438D02*
X136660714Y-37612152D01*
X136660714Y-37612152D02*
X136696428Y-37683581D01*
X136696428Y-37683581D02*
X136696428Y-37755010D01*
X136696428Y-37755010D02*
X136660714Y-37826438D01*
X136660714Y-37826438D02*
X136625000Y-37862152D01*
X136625000Y-37862152D02*
X136553571Y-37897867D01*
X136553571Y-37897867D02*
X136303571Y-37897867D01*
D13*
X138063810Y-67647607D02*
X138159524Y-67683321D01*
X138159524Y-67683321D02*
X138191429Y-67719035D01*
X138191429Y-67719035D02*
X138223333Y-67790464D01*
X138223333Y-67790464D02*
X138223333Y-67897607D01*
X138223333Y-67897607D02*
X138191429Y-67969035D01*
X138191429Y-67969035D02*
X138159524Y-68004750D01*
X138159524Y-68004750D02*
X138095714Y-68040464D01*
X138095714Y-68040464D02*
X137840476Y-68040464D01*
X137840476Y-68040464D02*
X137840476Y-67290464D01*
X137840476Y-67290464D02*
X138063810Y-67290464D01*
X138063810Y-67290464D02*
X138127619Y-67326178D01*
X138127619Y-67326178D02*
X138159524Y-67361892D01*
X138159524Y-67361892D02*
X138191429Y-67433321D01*
X138191429Y-67433321D02*
X138191429Y-67504750D01*
X138191429Y-67504750D02*
X138159524Y-67576178D01*
X138159524Y-67576178D02*
X138127619Y-67611892D01*
X138127619Y-67611892D02*
X138063810Y-67647607D01*
X138063810Y-67647607D02*
X137840476Y-67647607D01*
X138797619Y-67540464D02*
X138797619Y-68040464D01*
X138638095Y-67254750D02*
X138478572Y-67790464D01*
X138478572Y-67790464D02*
X138893333Y-67790464D01*
X139627143Y-67254750D02*
X139052857Y-68219035D01*
X139946191Y-67611892D02*
X139882381Y-67576178D01*
X139882381Y-67576178D02*
X139850476Y-67540464D01*
X139850476Y-67540464D02*
X139818572Y-67469035D01*
X139818572Y-67469035D02*
X139818572Y-67433321D01*
X139818572Y-67433321D02*
X139850476Y-67361892D01*
X139850476Y-67361892D02*
X139882381Y-67326178D01*
X139882381Y-67326178D02*
X139946191Y-67290464D01*
X139946191Y-67290464D02*
X140073810Y-67290464D01*
X140073810Y-67290464D02*
X140137619Y-67326178D01*
X140137619Y-67326178D02*
X140169524Y-67361892D01*
X140169524Y-67361892D02*
X140201429Y-67433321D01*
X140201429Y-67433321D02*
X140201429Y-67469035D01*
X140201429Y-67469035D02*
X140169524Y-67540464D01*
X140169524Y-67540464D02*
X140137619Y-67576178D01*
X140137619Y-67576178D02*
X140073810Y-67611892D01*
X140073810Y-67611892D02*
X139946191Y-67611892D01*
X139946191Y-67611892D02*
X139882381Y-67647607D01*
X139882381Y-67647607D02*
X139850476Y-67683321D01*
X139850476Y-67683321D02*
X139818572Y-67754750D01*
X139818572Y-67754750D02*
X139818572Y-67897607D01*
X139818572Y-67897607D02*
X139850476Y-67969035D01*
X139850476Y-67969035D02*
X139882381Y-68004750D01*
X139882381Y-68004750D02*
X139946191Y-68040464D01*
X139946191Y-68040464D02*
X140073810Y-68040464D01*
X140073810Y-68040464D02*
X140137619Y-68004750D01*
X140137619Y-68004750D02*
X140169524Y-67969035D01*
X140169524Y-67969035D02*
X140201429Y-67897607D01*
X140201429Y-67897607D02*
X140201429Y-67754750D01*
X140201429Y-67754750D02*
X140169524Y-67683321D01*
X140169524Y-67683321D02*
X140137619Y-67647607D01*
X140137619Y-67647607D02*
X140073810Y-67611892D01*
X136636428Y-45340464D02*
X136636428Y-44590464D01*
X136636428Y-44590464D02*
X136795952Y-44590464D01*
X136795952Y-44590464D02*
X136891666Y-44626178D01*
X136891666Y-44626178D02*
X136955476Y-44697607D01*
X136955476Y-44697607D02*
X136987381Y-44769035D01*
X136987381Y-44769035D02*
X137019285Y-44911892D01*
X137019285Y-44911892D02*
X137019285Y-45019035D01*
X137019285Y-45019035D02*
X136987381Y-45161892D01*
X136987381Y-45161892D02*
X136955476Y-45233321D01*
X136955476Y-45233321D02*
X136891666Y-45304750D01*
X136891666Y-45304750D02*
X136795952Y-45340464D01*
X136795952Y-45340464D02*
X136636428Y-45340464D01*
X137274524Y-44661892D02*
X137306428Y-44626178D01*
X137306428Y-44626178D02*
X137370238Y-44590464D01*
X137370238Y-44590464D02*
X137529762Y-44590464D01*
X137529762Y-44590464D02*
X137593571Y-44626178D01*
X137593571Y-44626178D02*
X137625476Y-44661892D01*
X137625476Y-44661892D02*
X137657381Y-44733321D01*
X137657381Y-44733321D02*
X137657381Y-44804750D01*
X137657381Y-44804750D02*
X137625476Y-44911892D01*
X137625476Y-44911892D02*
X137242619Y-45340464D01*
X137242619Y-45340464D02*
X137657381Y-45340464D01*
X138423095Y-44554750D02*
X137848809Y-45519035D01*
X139029285Y-45340464D02*
X138805952Y-44983321D01*
X138646428Y-45340464D02*
X138646428Y-44590464D01*
X138646428Y-44590464D02*
X138901666Y-44590464D01*
X138901666Y-44590464D02*
X138965476Y-44626178D01*
X138965476Y-44626178D02*
X138997381Y-44661892D01*
X138997381Y-44661892D02*
X139029285Y-44733321D01*
X139029285Y-44733321D02*
X139029285Y-44840464D01*
X139029285Y-44840464D02*
X138997381Y-44911892D01*
X138997381Y-44911892D02*
X138965476Y-44947607D01*
X138965476Y-44947607D02*
X138901666Y-44983321D01*
X138901666Y-44983321D02*
X138646428Y-44983321D01*
X139252619Y-44590464D02*
X139699285Y-45340464D01*
X139699285Y-44590464D02*
X139252619Y-45340464D01*
X140305476Y-45340464D02*
X139922619Y-45340464D01*
X140114047Y-45340464D02*
X140114047Y-44590464D01*
X140114047Y-44590464D02*
X140050238Y-44697607D01*
X140050238Y-44697607D02*
X139986428Y-44769035D01*
X139986428Y-44769035D02*
X139922619Y-44804750D01*
X138063810Y-70147607D02*
X138159524Y-70183321D01*
X138159524Y-70183321D02*
X138191429Y-70219035D01*
X138191429Y-70219035D02*
X138223333Y-70290464D01*
X138223333Y-70290464D02*
X138223333Y-70397607D01*
X138223333Y-70397607D02*
X138191429Y-70469035D01*
X138191429Y-70469035D02*
X138159524Y-70504750D01*
X138159524Y-70504750D02*
X138095714Y-70540464D01*
X138095714Y-70540464D02*
X137840476Y-70540464D01*
X137840476Y-70540464D02*
X137840476Y-69790464D01*
X137840476Y-69790464D02*
X138063810Y-69790464D01*
X138063810Y-69790464D02*
X138127619Y-69826178D01*
X138127619Y-69826178D02*
X138159524Y-69861892D01*
X138159524Y-69861892D02*
X138191429Y-69933321D01*
X138191429Y-69933321D02*
X138191429Y-70004750D01*
X138191429Y-70004750D02*
X138159524Y-70076178D01*
X138159524Y-70076178D02*
X138127619Y-70111892D01*
X138127619Y-70111892D02*
X138063810Y-70147607D01*
X138063810Y-70147607D02*
X137840476Y-70147607D01*
X138829524Y-69790464D02*
X138510476Y-69790464D01*
X138510476Y-69790464D02*
X138478572Y-70147607D01*
X138478572Y-70147607D02*
X138510476Y-70111892D01*
X138510476Y-70111892D02*
X138574286Y-70076178D01*
X138574286Y-70076178D02*
X138733810Y-70076178D01*
X138733810Y-70076178D02*
X138797619Y-70111892D01*
X138797619Y-70111892D02*
X138829524Y-70147607D01*
X138829524Y-70147607D02*
X138861429Y-70219035D01*
X138861429Y-70219035D02*
X138861429Y-70397607D01*
X138861429Y-70397607D02*
X138829524Y-70469035D01*
X138829524Y-70469035D02*
X138797619Y-70504750D01*
X138797619Y-70504750D02*
X138733810Y-70540464D01*
X138733810Y-70540464D02*
X138574286Y-70540464D01*
X138574286Y-70540464D02*
X138510476Y-70504750D01*
X138510476Y-70504750D02*
X138478572Y-70469035D01*
X139627143Y-69754750D02*
X139052857Y-70719035D01*
X139882381Y-70540464D02*
X140010000Y-70540464D01*
X140010000Y-70540464D02*
X140073810Y-70504750D01*
X140073810Y-70504750D02*
X140105714Y-70469035D01*
X140105714Y-70469035D02*
X140169524Y-70361892D01*
X140169524Y-70361892D02*
X140201429Y-70219035D01*
X140201429Y-70219035D02*
X140201429Y-69933321D01*
X140201429Y-69933321D02*
X140169524Y-69861892D01*
X140169524Y-69861892D02*
X140137619Y-69826178D01*
X140137619Y-69826178D02*
X140073810Y-69790464D01*
X140073810Y-69790464D02*
X139946191Y-69790464D01*
X139946191Y-69790464D02*
X139882381Y-69826178D01*
X139882381Y-69826178D02*
X139850476Y-69861892D01*
X139850476Y-69861892D02*
X139818572Y-69933321D01*
X139818572Y-69933321D02*
X139818572Y-70111892D01*
X139818572Y-70111892D02*
X139850476Y-70183321D01*
X139850476Y-70183321D02*
X139882381Y-70219035D01*
X139882381Y-70219035D02*
X139946191Y-70254750D01*
X139946191Y-70254750D02*
X140073810Y-70254750D01*
X140073810Y-70254750D02*
X140137619Y-70219035D01*
X140137619Y-70219035D02*
X140169524Y-70183321D01*
X140169524Y-70183321D02*
X140201429Y-70111892D01*
X138223333Y-60319035D02*
X138191429Y-60354750D01*
X138191429Y-60354750D02*
X138095714Y-60390464D01*
X138095714Y-60390464D02*
X138031905Y-60390464D01*
X138031905Y-60390464D02*
X137936191Y-60354750D01*
X137936191Y-60354750D02*
X137872381Y-60283321D01*
X137872381Y-60283321D02*
X137840476Y-60211892D01*
X137840476Y-60211892D02*
X137808572Y-60069035D01*
X137808572Y-60069035D02*
X137808572Y-59961892D01*
X137808572Y-59961892D02*
X137840476Y-59819035D01*
X137840476Y-59819035D02*
X137872381Y-59747607D01*
X137872381Y-59747607D02*
X137936191Y-59676178D01*
X137936191Y-59676178D02*
X138031905Y-59640464D01*
X138031905Y-59640464D02*
X138095714Y-59640464D01*
X138095714Y-59640464D02*
X138191429Y-59676178D01*
X138191429Y-59676178D02*
X138223333Y-59711892D01*
X138797619Y-59640464D02*
X138670000Y-59640464D01*
X138670000Y-59640464D02*
X138606191Y-59676178D01*
X138606191Y-59676178D02*
X138574286Y-59711892D01*
X138574286Y-59711892D02*
X138510476Y-59819035D01*
X138510476Y-59819035D02*
X138478572Y-59961892D01*
X138478572Y-59961892D02*
X138478572Y-60247607D01*
X138478572Y-60247607D02*
X138510476Y-60319035D01*
X138510476Y-60319035D02*
X138542381Y-60354750D01*
X138542381Y-60354750D02*
X138606191Y-60390464D01*
X138606191Y-60390464D02*
X138733810Y-60390464D01*
X138733810Y-60390464D02*
X138797619Y-60354750D01*
X138797619Y-60354750D02*
X138829524Y-60319035D01*
X138829524Y-60319035D02*
X138861429Y-60247607D01*
X138861429Y-60247607D02*
X138861429Y-60069035D01*
X138861429Y-60069035D02*
X138829524Y-59997607D01*
X138829524Y-59997607D02*
X138797619Y-59961892D01*
X138797619Y-59961892D02*
X138733810Y-59926178D01*
X138733810Y-59926178D02*
X138606191Y-59926178D01*
X138606191Y-59926178D02*
X138542381Y-59961892D01*
X138542381Y-59961892D02*
X138510476Y-59997607D01*
X138510476Y-59997607D02*
X138478572Y-60069035D01*
X139627143Y-59604750D02*
X139052857Y-60569035D01*
X140169524Y-59640464D02*
X139850476Y-59640464D01*
X139850476Y-59640464D02*
X139818572Y-59997607D01*
X139818572Y-59997607D02*
X139850476Y-59961892D01*
X139850476Y-59961892D02*
X139914286Y-59926178D01*
X139914286Y-59926178D02*
X140073810Y-59926178D01*
X140073810Y-59926178D02*
X140137619Y-59961892D01*
X140137619Y-59961892D02*
X140169524Y-59997607D01*
X140169524Y-59997607D02*
X140201429Y-60069035D01*
X140201429Y-60069035D02*
X140201429Y-60247607D01*
X140201429Y-60247607D02*
X140169524Y-60319035D01*
X140169524Y-60319035D02*
X140137619Y-60354750D01*
X140137619Y-60354750D02*
X140073810Y-60390464D01*
X140073810Y-60390464D02*
X139914286Y-60390464D01*
X139914286Y-60390464D02*
X139850476Y-60354750D01*
X139850476Y-60354750D02*
X139818572Y-60319035D01*
X135282381Y-55304750D02*
X135378095Y-55340464D01*
X135378095Y-55340464D02*
X135537619Y-55340464D01*
X135537619Y-55340464D02*
X135601428Y-55304750D01*
X135601428Y-55304750D02*
X135633333Y-55269035D01*
X135633333Y-55269035D02*
X135665238Y-55197607D01*
X135665238Y-55197607D02*
X135665238Y-55126178D01*
X135665238Y-55126178D02*
X135633333Y-55054750D01*
X135633333Y-55054750D02*
X135601428Y-55019035D01*
X135601428Y-55019035D02*
X135537619Y-54983321D01*
X135537619Y-54983321D02*
X135410000Y-54947607D01*
X135410000Y-54947607D02*
X135346190Y-54911892D01*
X135346190Y-54911892D02*
X135314285Y-54876178D01*
X135314285Y-54876178D02*
X135282381Y-54804750D01*
X135282381Y-54804750D02*
X135282381Y-54733321D01*
X135282381Y-54733321D02*
X135314285Y-54661892D01*
X135314285Y-54661892D02*
X135346190Y-54626178D01*
X135346190Y-54626178D02*
X135410000Y-54590464D01*
X135410000Y-54590464D02*
X135569523Y-54590464D01*
X135569523Y-54590464D02*
X135665238Y-54626178D01*
X136335237Y-55269035D02*
X136303333Y-55304750D01*
X136303333Y-55304750D02*
X136207618Y-55340464D01*
X136207618Y-55340464D02*
X136143809Y-55340464D01*
X136143809Y-55340464D02*
X136048095Y-55304750D01*
X136048095Y-55304750D02*
X135984285Y-55233321D01*
X135984285Y-55233321D02*
X135952380Y-55161892D01*
X135952380Y-55161892D02*
X135920476Y-55019035D01*
X135920476Y-55019035D02*
X135920476Y-54911892D01*
X135920476Y-54911892D02*
X135952380Y-54769035D01*
X135952380Y-54769035D02*
X135984285Y-54697607D01*
X135984285Y-54697607D02*
X136048095Y-54626178D01*
X136048095Y-54626178D02*
X136143809Y-54590464D01*
X136143809Y-54590464D02*
X136207618Y-54590464D01*
X136207618Y-54590464D02*
X136303333Y-54626178D01*
X136303333Y-54626178D02*
X136335237Y-54661892D01*
X136941428Y-55340464D02*
X136622380Y-55340464D01*
X136622380Y-55340464D02*
X136622380Y-54590464D01*
X137643333Y-54554750D02*
X137069047Y-55519035D01*
X137866666Y-55340464D02*
X137866666Y-54590464D01*
X137866666Y-54590464D02*
X138026190Y-54590464D01*
X138026190Y-54590464D02*
X138121904Y-54626178D01*
X138121904Y-54626178D02*
X138185714Y-54697607D01*
X138185714Y-54697607D02*
X138217619Y-54769035D01*
X138217619Y-54769035D02*
X138249523Y-54911892D01*
X138249523Y-54911892D02*
X138249523Y-55019035D01*
X138249523Y-55019035D02*
X138217619Y-55161892D01*
X138217619Y-55161892D02*
X138185714Y-55233321D01*
X138185714Y-55233321D02*
X138121904Y-55304750D01*
X138121904Y-55304750D02*
X138026190Y-55340464D01*
X138026190Y-55340464D02*
X137866666Y-55340464D01*
X138664285Y-54590464D02*
X138728095Y-54590464D01*
X138728095Y-54590464D02*
X138791904Y-54626178D01*
X138791904Y-54626178D02*
X138823809Y-54661892D01*
X138823809Y-54661892D02*
X138855714Y-54733321D01*
X138855714Y-54733321D02*
X138887619Y-54876178D01*
X138887619Y-54876178D02*
X138887619Y-55054750D01*
X138887619Y-55054750D02*
X138855714Y-55197607D01*
X138855714Y-55197607D02*
X138823809Y-55269035D01*
X138823809Y-55269035D02*
X138791904Y-55304750D01*
X138791904Y-55304750D02*
X138728095Y-55340464D01*
X138728095Y-55340464D02*
X138664285Y-55340464D01*
X138664285Y-55340464D02*
X138600476Y-55304750D01*
X138600476Y-55304750D02*
X138568571Y-55269035D01*
X138568571Y-55269035D02*
X138536666Y-55197607D01*
X138536666Y-55197607D02*
X138504762Y-55054750D01*
X138504762Y-55054750D02*
X138504762Y-54876178D01*
X138504762Y-54876178D02*
X138536666Y-54733321D01*
X138536666Y-54733321D02*
X138568571Y-54661892D01*
X138568571Y-54661892D02*
X138600476Y-54626178D01*
X138600476Y-54626178D02*
X138664285Y-54590464D01*
X139653333Y-54554750D02*
X139079047Y-55519035D01*
X139812857Y-54590464D02*
X140227619Y-54590464D01*
X140227619Y-54590464D02*
X140004285Y-54876178D01*
X140004285Y-54876178D02*
X140100000Y-54876178D01*
X140100000Y-54876178D02*
X140163809Y-54911892D01*
X140163809Y-54911892D02*
X140195714Y-54947607D01*
X140195714Y-54947607D02*
X140227619Y-55019035D01*
X140227619Y-55019035D02*
X140227619Y-55197607D01*
X140227619Y-55197607D02*
X140195714Y-55269035D01*
X140195714Y-55269035D02*
X140163809Y-55304750D01*
X140163809Y-55304750D02*
X140100000Y-55340464D01*
X140100000Y-55340464D02*
X139908571Y-55340464D01*
X139908571Y-55340464D02*
X139844762Y-55304750D01*
X139844762Y-55304750D02*
X139812857Y-55269035D01*
X135266429Y-52804750D02*
X135362143Y-52840464D01*
X135362143Y-52840464D02*
X135521667Y-52840464D01*
X135521667Y-52840464D02*
X135585476Y-52804750D01*
X135585476Y-52804750D02*
X135617381Y-52769035D01*
X135617381Y-52769035D02*
X135649286Y-52697607D01*
X135649286Y-52697607D02*
X135649286Y-52626178D01*
X135649286Y-52626178D02*
X135617381Y-52554750D01*
X135617381Y-52554750D02*
X135585476Y-52519035D01*
X135585476Y-52519035D02*
X135521667Y-52483321D01*
X135521667Y-52483321D02*
X135394048Y-52447607D01*
X135394048Y-52447607D02*
X135330238Y-52411892D01*
X135330238Y-52411892D02*
X135298333Y-52376178D01*
X135298333Y-52376178D02*
X135266429Y-52304750D01*
X135266429Y-52304750D02*
X135266429Y-52233321D01*
X135266429Y-52233321D02*
X135298333Y-52161892D01*
X135298333Y-52161892D02*
X135330238Y-52126178D01*
X135330238Y-52126178D02*
X135394048Y-52090464D01*
X135394048Y-52090464D02*
X135553571Y-52090464D01*
X135553571Y-52090464D02*
X135649286Y-52126178D01*
X135936428Y-52840464D02*
X135936428Y-52090464D01*
X135936428Y-52090464D02*
X136095952Y-52090464D01*
X136095952Y-52090464D02*
X136191666Y-52126178D01*
X136191666Y-52126178D02*
X136255476Y-52197607D01*
X136255476Y-52197607D02*
X136287381Y-52269035D01*
X136287381Y-52269035D02*
X136319285Y-52411892D01*
X136319285Y-52411892D02*
X136319285Y-52519035D01*
X136319285Y-52519035D02*
X136287381Y-52661892D01*
X136287381Y-52661892D02*
X136255476Y-52733321D01*
X136255476Y-52733321D02*
X136191666Y-52804750D01*
X136191666Y-52804750D02*
X136095952Y-52840464D01*
X136095952Y-52840464D02*
X135936428Y-52840464D01*
X136574524Y-52626178D02*
X136893571Y-52626178D01*
X136510714Y-52840464D02*
X136734047Y-52090464D01*
X136734047Y-52090464D02*
X136957381Y-52840464D01*
X137659286Y-52054750D02*
X137085000Y-53019035D01*
X137882619Y-52840464D02*
X137882619Y-52090464D01*
X137882619Y-52090464D02*
X138042143Y-52090464D01*
X138042143Y-52090464D02*
X138137857Y-52126178D01*
X138137857Y-52126178D02*
X138201667Y-52197607D01*
X138201667Y-52197607D02*
X138233572Y-52269035D01*
X138233572Y-52269035D02*
X138265476Y-52411892D01*
X138265476Y-52411892D02*
X138265476Y-52519035D01*
X138265476Y-52519035D02*
X138233572Y-52661892D01*
X138233572Y-52661892D02*
X138201667Y-52733321D01*
X138201667Y-52733321D02*
X138137857Y-52804750D01*
X138137857Y-52804750D02*
X138042143Y-52840464D01*
X138042143Y-52840464D02*
X137882619Y-52840464D01*
X138903572Y-52840464D02*
X138520715Y-52840464D01*
X138712143Y-52840464D02*
X138712143Y-52090464D01*
X138712143Y-52090464D02*
X138648334Y-52197607D01*
X138648334Y-52197607D02*
X138584524Y-52269035D01*
X138584524Y-52269035D02*
X138520715Y-52304750D01*
X139669286Y-52054750D02*
X139095000Y-53019035D01*
X139860715Y-52161892D02*
X139892619Y-52126178D01*
X139892619Y-52126178D02*
X139956429Y-52090464D01*
X139956429Y-52090464D02*
X140115953Y-52090464D01*
X140115953Y-52090464D02*
X140179762Y-52126178D01*
X140179762Y-52126178D02*
X140211667Y-52161892D01*
X140211667Y-52161892D02*
X140243572Y-52233321D01*
X140243572Y-52233321D02*
X140243572Y-52304750D01*
X140243572Y-52304750D02*
X140211667Y-52411892D01*
X140211667Y-52411892D02*
X139828810Y-52840464D01*
X139828810Y-52840464D02*
X140243572Y-52840464D01*
X137840476Y-57840464D02*
X137840476Y-57090464D01*
X137840476Y-57090464D02*
X138000000Y-57090464D01*
X138000000Y-57090464D02*
X138095714Y-57126178D01*
X138095714Y-57126178D02*
X138159524Y-57197607D01*
X138159524Y-57197607D02*
X138191429Y-57269035D01*
X138191429Y-57269035D02*
X138223333Y-57411892D01*
X138223333Y-57411892D02*
X138223333Y-57519035D01*
X138223333Y-57519035D02*
X138191429Y-57661892D01*
X138191429Y-57661892D02*
X138159524Y-57733321D01*
X138159524Y-57733321D02*
X138095714Y-57804750D01*
X138095714Y-57804750D02*
X138000000Y-57840464D01*
X138000000Y-57840464D02*
X137840476Y-57840464D01*
X138797619Y-57340464D02*
X138797619Y-57840464D01*
X138638095Y-57054750D02*
X138478572Y-57590464D01*
X138478572Y-57590464D02*
X138893333Y-57590464D01*
X139627143Y-57054750D02*
X139052857Y-58019035D01*
X140137619Y-57340464D02*
X140137619Y-57840464D01*
X139978095Y-57054750D02*
X139818572Y-57590464D01*
X139818572Y-57590464D02*
X140233333Y-57590464D01*
X136716190Y-42790464D02*
X136716190Y-42040464D01*
X136716190Y-42040464D02*
X136875714Y-42040464D01*
X136875714Y-42040464D02*
X136971428Y-42076178D01*
X136971428Y-42076178D02*
X137035238Y-42147607D01*
X137035238Y-42147607D02*
X137067143Y-42219035D01*
X137067143Y-42219035D02*
X137099047Y-42361892D01*
X137099047Y-42361892D02*
X137099047Y-42469035D01*
X137099047Y-42469035D02*
X137067143Y-42611892D01*
X137067143Y-42611892D02*
X137035238Y-42683321D01*
X137035238Y-42683321D02*
X136971428Y-42754750D01*
X136971428Y-42754750D02*
X136875714Y-42790464D01*
X136875714Y-42790464D02*
X136716190Y-42790464D01*
X137322381Y-42040464D02*
X137737143Y-42040464D01*
X137737143Y-42040464D02*
X137513809Y-42326178D01*
X137513809Y-42326178D02*
X137609524Y-42326178D01*
X137609524Y-42326178D02*
X137673333Y-42361892D01*
X137673333Y-42361892D02*
X137705238Y-42397607D01*
X137705238Y-42397607D02*
X137737143Y-42469035D01*
X137737143Y-42469035D02*
X137737143Y-42647607D01*
X137737143Y-42647607D02*
X137705238Y-42719035D01*
X137705238Y-42719035D02*
X137673333Y-42754750D01*
X137673333Y-42754750D02*
X137609524Y-42790464D01*
X137609524Y-42790464D02*
X137418095Y-42790464D01*
X137418095Y-42790464D02*
X137354286Y-42754750D01*
X137354286Y-42754750D02*
X137322381Y-42719035D01*
X138502857Y-42004750D02*
X137928571Y-42969035D01*
X138630476Y-42040464D02*
X139013333Y-42040464D01*
X138821905Y-42790464D02*
X138821905Y-42040464D01*
X139172857Y-42040464D02*
X139619523Y-42790464D01*
X139619523Y-42040464D02*
X139172857Y-42790464D01*
X140002380Y-42040464D02*
X140066190Y-42040464D01*
X140066190Y-42040464D02*
X140129999Y-42076178D01*
X140129999Y-42076178D02*
X140161904Y-42111892D01*
X140161904Y-42111892D02*
X140193809Y-42183321D01*
X140193809Y-42183321D02*
X140225714Y-42326178D01*
X140225714Y-42326178D02*
X140225714Y-42504750D01*
X140225714Y-42504750D02*
X140193809Y-42647607D01*
X140193809Y-42647607D02*
X140161904Y-42719035D01*
X140161904Y-42719035D02*
X140129999Y-42754750D01*
X140129999Y-42754750D02*
X140066190Y-42790464D01*
X140066190Y-42790464D02*
X140002380Y-42790464D01*
X140002380Y-42790464D02*
X139938571Y-42754750D01*
X139938571Y-42754750D02*
X139906666Y-42719035D01*
X139906666Y-42719035D02*
X139874761Y-42647607D01*
X139874761Y-42647607D02*
X139842857Y-42504750D01*
X139842857Y-42504750D02*
X139842857Y-42326178D01*
X139842857Y-42326178D02*
X139874761Y-42183321D01*
X139874761Y-42183321D02*
X139906666Y-42111892D01*
X139906666Y-42111892D02*
X139938571Y-42076178D01*
X139938571Y-42076178D02*
X140002380Y-42040464D01*
X138744524Y-49626178D02*
X138680714Y-49590464D01*
X138680714Y-49590464D02*
X138585000Y-49590464D01*
X138585000Y-49590464D02*
X138489286Y-49626178D01*
X138489286Y-49626178D02*
X138425476Y-49697607D01*
X138425476Y-49697607D02*
X138393571Y-49769035D01*
X138393571Y-49769035D02*
X138361667Y-49911892D01*
X138361667Y-49911892D02*
X138361667Y-50019035D01*
X138361667Y-50019035D02*
X138393571Y-50161892D01*
X138393571Y-50161892D02*
X138425476Y-50233321D01*
X138425476Y-50233321D02*
X138489286Y-50304750D01*
X138489286Y-50304750D02*
X138585000Y-50340464D01*
X138585000Y-50340464D02*
X138648809Y-50340464D01*
X138648809Y-50340464D02*
X138744524Y-50304750D01*
X138744524Y-50304750D02*
X138776428Y-50269035D01*
X138776428Y-50269035D02*
X138776428Y-50019035D01*
X138776428Y-50019035D02*
X138648809Y-50019035D01*
X139063571Y-50340464D02*
X139063571Y-49590464D01*
X139063571Y-49590464D02*
X139446428Y-50340464D01*
X139446428Y-50340464D02*
X139446428Y-49590464D01*
X139765476Y-50340464D02*
X139765476Y-49590464D01*
X139765476Y-49590464D02*
X139925000Y-49590464D01*
X139925000Y-49590464D02*
X140020714Y-49626178D01*
X140020714Y-49626178D02*
X140084524Y-49697607D01*
X140084524Y-49697607D02*
X140116429Y-49769035D01*
X140116429Y-49769035D02*
X140148333Y-49911892D01*
X140148333Y-49911892D02*
X140148333Y-50019035D01*
X140148333Y-50019035D02*
X140116429Y-50161892D01*
X140116429Y-50161892D02*
X140084524Y-50233321D01*
X140084524Y-50233321D02*
X140020714Y-50304750D01*
X140020714Y-50304750D02*
X139925000Y-50340464D01*
X139925000Y-50340464D02*
X139765476Y-50340464D01*
X138744524Y-47176178D02*
X138680714Y-47140464D01*
X138680714Y-47140464D02*
X138585000Y-47140464D01*
X138585000Y-47140464D02*
X138489286Y-47176178D01*
X138489286Y-47176178D02*
X138425476Y-47247607D01*
X138425476Y-47247607D02*
X138393571Y-47319035D01*
X138393571Y-47319035D02*
X138361667Y-47461892D01*
X138361667Y-47461892D02*
X138361667Y-47569035D01*
X138361667Y-47569035D02*
X138393571Y-47711892D01*
X138393571Y-47711892D02*
X138425476Y-47783321D01*
X138425476Y-47783321D02*
X138489286Y-47854750D01*
X138489286Y-47854750D02*
X138585000Y-47890464D01*
X138585000Y-47890464D02*
X138648809Y-47890464D01*
X138648809Y-47890464D02*
X138744524Y-47854750D01*
X138744524Y-47854750D02*
X138776428Y-47819035D01*
X138776428Y-47819035D02*
X138776428Y-47569035D01*
X138776428Y-47569035D02*
X138648809Y-47569035D01*
X139063571Y-47890464D02*
X139063571Y-47140464D01*
X139063571Y-47140464D02*
X139446428Y-47890464D01*
X139446428Y-47890464D02*
X139446428Y-47140464D01*
X139765476Y-47890464D02*
X139765476Y-47140464D01*
X139765476Y-47140464D02*
X139925000Y-47140464D01*
X139925000Y-47140464D02*
X140020714Y-47176178D01*
X140020714Y-47176178D02*
X140084524Y-47247607D01*
X140084524Y-47247607D02*
X140116429Y-47319035D01*
X140116429Y-47319035D02*
X140148333Y-47461892D01*
X140148333Y-47461892D02*
X140148333Y-47569035D01*
X140148333Y-47569035D02*
X140116429Y-47711892D01*
X140116429Y-47711892D02*
X140084524Y-47783321D01*
X140084524Y-47783321D02*
X140020714Y-47854750D01*
X140020714Y-47854750D02*
X139925000Y-47890464D01*
X139925000Y-47890464D02*
X139765476Y-47890464D01*
X137840476Y-62940464D02*
X137840476Y-62190464D01*
X137840476Y-62190464D02*
X138000000Y-62190464D01*
X138000000Y-62190464D02*
X138095714Y-62226178D01*
X138095714Y-62226178D02*
X138159524Y-62297607D01*
X138159524Y-62297607D02*
X138191429Y-62369035D01*
X138191429Y-62369035D02*
X138223333Y-62511892D01*
X138223333Y-62511892D02*
X138223333Y-62619035D01*
X138223333Y-62619035D02*
X138191429Y-62761892D01*
X138191429Y-62761892D02*
X138159524Y-62833321D01*
X138159524Y-62833321D02*
X138095714Y-62904750D01*
X138095714Y-62904750D02*
X138000000Y-62940464D01*
X138000000Y-62940464D02*
X137840476Y-62940464D01*
X138446667Y-62190464D02*
X138893333Y-62190464D01*
X138893333Y-62190464D02*
X138606191Y-62940464D01*
X139627143Y-62154750D02*
X139052857Y-63119035D01*
X140137619Y-62190464D02*
X140010000Y-62190464D01*
X140010000Y-62190464D02*
X139946191Y-62226178D01*
X139946191Y-62226178D02*
X139914286Y-62261892D01*
X139914286Y-62261892D02*
X139850476Y-62369035D01*
X139850476Y-62369035D02*
X139818572Y-62511892D01*
X139818572Y-62511892D02*
X139818572Y-62797607D01*
X139818572Y-62797607D02*
X139850476Y-62869035D01*
X139850476Y-62869035D02*
X139882381Y-62904750D01*
X139882381Y-62904750D02*
X139946191Y-62940464D01*
X139946191Y-62940464D02*
X140073810Y-62940464D01*
X140073810Y-62940464D02*
X140137619Y-62904750D01*
X140137619Y-62904750D02*
X140169524Y-62869035D01*
X140169524Y-62869035D02*
X140201429Y-62797607D01*
X140201429Y-62797607D02*
X140201429Y-62619035D01*
X140201429Y-62619035D02*
X140169524Y-62547607D01*
X140169524Y-62547607D02*
X140137619Y-62511892D01*
X140137619Y-62511892D02*
X140073810Y-62476178D01*
X140073810Y-62476178D02*
X139946191Y-62476178D01*
X139946191Y-62476178D02*
X139882381Y-62511892D01*
X139882381Y-62511892D02*
X139850476Y-62547607D01*
X139850476Y-62547607D02*
X139818572Y-62619035D01*
X137872381Y-65097607D02*
X138095715Y-65097607D01*
X138191429Y-65490464D02*
X137872381Y-65490464D01*
X137872381Y-65490464D02*
X137872381Y-64740464D01*
X137872381Y-64740464D02*
X138191429Y-64740464D01*
X138765714Y-64740464D02*
X138638095Y-64740464D01*
X138638095Y-64740464D02*
X138574286Y-64776178D01*
X138574286Y-64776178D02*
X138542381Y-64811892D01*
X138542381Y-64811892D02*
X138478571Y-64919035D01*
X138478571Y-64919035D02*
X138446667Y-65061892D01*
X138446667Y-65061892D02*
X138446667Y-65347607D01*
X138446667Y-65347607D02*
X138478571Y-65419035D01*
X138478571Y-65419035D02*
X138510476Y-65454750D01*
X138510476Y-65454750D02*
X138574286Y-65490464D01*
X138574286Y-65490464D02*
X138701905Y-65490464D01*
X138701905Y-65490464D02*
X138765714Y-65454750D01*
X138765714Y-65454750D02*
X138797619Y-65419035D01*
X138797619Y-65419035D02*
X138829524Y-65347607D01*
X138829524Y-65347607D02*
X138829524Y-65169035D01*
X138829524Y-65169035D02*
X138797619Y-65097607D01*
X138797619Y-65097607D02*
X138765714Y-65061892D01*
X138765714Y-65061892D02*
X138701905Y-65026178D01*
X138701905Y-65026178D02*
X138574286Y-65026178D01*
X138574286Y-65026178D02*
X138510476Y-65061892D01*
X138510476Y-65061892D02*
X138478571Y-65097607D01*
X138478571Y-65097607D02*
X138446667Y-65169035D01*
X139595238Y-64704750D02*
X139020952Y-65669035D01*
X139754762Y-64740464D02*
X140201428Y-64740464D01*
X140201428Y-64740464D02*
X139914286Y-65490464D01*
X128772381Y-68190464D02*
X128389524Y-68190464D01*
X128580952Y-68190464D02*
X128580952Y-67440464D01*
X128580952Y-67440464D02*
X128517143Y-67547607D01*
X128517143Y-67547607D02*
X128453333Y-67619035D01*
X128453333Y-67619035D02*
X128389524Y-67654750D01*
X129346666Y-67440464D02*
X129219047Y-67440464D01*
X129219047Y-67440464D02*
X129155238Y-67476178D01*
X129155238Y-67476178D02*
X129123333Y-67511892D01*
X129123333Y-67511892D02*
X129059523Y-67619035D01*
X129059523Y-67619035D02*
X129027619Y-67761892D01*
X129027619Y-67761892D02*
X129027619Y-68047607D01*
X129027619Y-68047607D02*
X129059523Y-68119035D01*
X129059523Y-68119035D02*
X129091428Y-68154750D01*
X129091428Y-68154750D02*
X129155238Y-68190464D01*
X129155238Y-68190464D02*
X129282857Y-68190464D01*
X129282857Y-68190464D02*
X129346666Y-68154750D01*
X129346666Y-68154750D02*
X129378571Y-68119035D01*
X129378571Y-68119035D02*
X129410476Y-68047607D01*
X129410476Y-68047607D02*
X129410476Y-67869035D01*
X129410476Y-67869035D02*
X129378571Y-67797607D01*
X129378571Y-67797607D02*
X129346666Y-67761892D01*
X129346666Y-67761892D02*
X129282857Y-67726178D01*
X129282857Y-67726178D02*
X129155238Y-67726178D01*
X129155238Y-67726178D02*
X129091428Y-67761892D01*
X129091428Y-67761892D02*
X129059523Y-67797607D01*
X129059523Y-67797607D02*
X129027619Y-67869035D01*
X130176190Y-67404750D02*
X129601904Y-68369035D01*
X130622857Y-67797607D02*
X130718571Y-67833321D01*
X130718571Y-67833321D02*
X130750476Y-67869035D01*
X130750476Y-67869035D02*
X130782380Y-67940464D01*
X130782380Y-67940464D02*
X130782380Y-68047607D01*
X130782380Y-68047607D02*
X130750476Y-68119035D01*
X130750476Y-68119035D02*
X130718571Y-68154750D01*
X130718571Y-68154750D02*
X130654761Y-68190464D01*
X130654761Y-68190464D02*
X130399523Y-68190464D01*
X130399523Y-68190464D02*
X130399523Y-67440464D01*
X130399523Y-67440464D02*
X130622857Y-67440464D01*
X130622857Y-67440464D02*
X130686666Y-67476178D01*
X130686666Y-67476178D02*
X130718571Y-67511892D01*
X130718571Y-67511892D02*
X130750476Y-67583321D01*
X130750476Y-67583321D02*
X130750476Y-67654750D01*
X130750476Y-67654750D02*
X130718571Y-67726178D01*
X130718571Y-67726178D02*
X130686666Y-67761892D01*
X130686666Y-67761892D02*
X130622857Y-67797607D01*
X130622857Y-67797607D02*
X130399523Y-67797607D01*
X131037619Y-67511892D02*
X131069523Y-67476178D01*
X131069523Y-67476178D02*
X131133333Y-67440464D01*
X131133333Y-67440464D02*
X131292857Y-67440464D01*
X131292857Y-67440464D02*
X131356666Y-67476178D01*
X131356666Y-67476178D02*
X131388571Y-67511892D01*
X131388571Y-67511892D02*
X131420476Y-67583321D01*
X131420476Y-67583321D02*
X131420476Y-67654750D01*
X131420476Y-67654750D02*
X131388571Y-67761892D01*
X131388571Y-67761892D02*
X131005714Y-68190464D01*
X131005714Y-68190464D02*
X131420476Y-68190464D01*
X128772381Y-70690464D02*
X128389524Y-70690464D01*
X128580952Y-70690464D02*
X128580952Y-69940464D01*
X128580952Y-69940464D02*
X128517143Y-70047607D01*
X128517143Y-70047607D02*
X128453333Y-70119035D01*
X128453333Y-70119035D02*
X128389524Y-70154750D01*
X129187142Y-69940464D02*
X129250952Y-69940464D01*
X129250952Y-69940464D02*
X129314761Y-69976178D01*
X129314761Y-69976178D02*
X129346666Y-70011892D01*
X129346666Y-70011892D02*
X129378571Y-70083321D01*
X129378571Y-70083321D02*
X129410476Y-70226178D01*
X129410476Y-70226178D02*
X129410476Y-70404750D01*
X129410476Y-70404750D02*
X129378571Y-70547607D01*
X129378571Y-70547607D02*
X129346666Y-70619035D01*
X129346666Y-70619035D02*
X129314761Y-70654750D01*
X129314761Y-70654750D02*
X129250952Y-70690464D01*
X129250952Y-70690464D02*
X129187142Y-70690464D01*
X129187142Y-70690464D02*
X129123333Y-70654750D01*
X129123333Y-70654750D02*
X129091428Y-70619035D01*
X129091428Y-70619035D02*
X129059523Y-70547607D01*
X129059523Y-70547607D02*
X129027619Y-70404750D01*
X129027619Y-70404750D02*
X129027619Y-70226178D01*
X129027619Y-70226178D02*
X129059523Y-70083321D01*
X129059523Y-70083321D02*
X129091428Y-70011892D01*
X129091428Y-70011892D02*
X129123333Y-69976178D01*
X129123333Y-69976178D02*
X129187142Y-69940464D01*
X130176190Y-69904750D02*
X129601904Y-70869035D01*
X130622857Y-70297607D02*
X130718571Y-70333321D01*
X130718571Y-70333321D02*
X130750476Y-70369035D01*
X130750476Y-70369035D02*
X130782380Y-70440464D01*
X130782380Y-70440464D02*
X130782380Y-70547607D01*
X130782380Y-70547607D02*
X130750476Y-70619035D01*
X130750476Y-70619035D02*
X130718571Y-70654750D01*
X130718571Y-70654750D02*
X130654761Y-70690464D01*
X130654761Y-70690464D02*
X130399523Y-70690464D01*
X130399523Y-70690464D02*
X130399523Y-69940464D01*
X130399523Y-69940464D02*
X130622857Y-69940464D01*
X130622857Y-69940464D02*
X130686666Y-69976178D01*
X130686666Y-69976178D02*
X130718571Y-70011892D01*
X130718571Y-70011892D02*
X130750476Y-70083321D01*
X130750476Y-70083321D02*
X130750476Y-70154750D01*
X130750476Y-70154750D02*
X130718571Y-70226178D01*
X130718571Y-70226178D02*
X130686666Y-70261892D01*
X130686666Y-70261892D02*
X130622857Y-70297607D01*
X130622857Y-70297607D02*
X130399523Y-70297607D01*
X131356666Y-69940464D02*
X131229047Y-69940464D01*
X131229047Y-69940464D02*
X131165238Y-69976178D01*
X131165238Y-69976178D02*
X131133333Y-70011892D01*
X131133333Y-70011892D02*
X131069523Y-70119035D01*
X131069523Y-70119035D02*
X131037619Y-70261892D01*
X131037619Y-70261892D02*
X131037619Y-70547607D01*
X131037619Y-70547607D02*
X131069523Y-70619035D01*
X131069523Y-70619035D02*
X131101428Y-70654750D01*
X131101428Y-70654750D02*
X131165238Y-70690464D01*
X131165238Y-70690464D02*
X131292857Y-70690464D01*
X131292857Y-70690464D02*
X131356666Y-70654750D01*
X131356666Y-70654750D02*
X131388571Y-70619035D01*
X131388571Y-70619035D02*
X131420476Y-70547607D01*
X131420476Y-70547607D02*
X131420476Y-70369035D01*
X131420476Y-70369035D02*
X131388571Y-70297607D01*
X131388571Y-70297607D02*
X131356666Y-70261892D01*
X131356666Y-70261892D02*
X131292857Y-70226178D01*
X131292857Y-70226178D02*
X131165238Y-70226178D01*
X131165238Y-70226178D02*
X131101428Y-70261892D01*
X131101428Y-70261892D02*
X131069523Y-70297607D01*
X131069523Y-70297607D02*
X131037619Y-70369035D01*
X128772381Y-65640464D02*
X128389524Y-65640464D01*
X128580952Y-65640464D02*
X128580952Y-64890464D01*
X128580952Y-64890464D02*
X128517143Y-64997607D01*
X128517143Y-64997607D02*
X128453333Y-65069035D01*
X128453333Y-65069035D02*
X128389524Y-65104750D01*
X129346666Y-65140464D02*
X129346666Y-65640464D01*
X129187142Y-64854750D02*
X129027619Y-65390464D01*
X129027619Y-65390464D02*
X129442380Y-65390464D01*
X130176190Y-64854750D02*
X129601904Y-65819035D01*
X130622857Y-65247607D02*
X130718571Y-65283321D01*
X130718571Y-65283321D02*
X130750476Y-65319035D01*
X130750476Y-65319035D02*
X130782380Y-65390464D01*
X130782380Y-65390464D02*
X130782380Y-65497607D01*
X130782380Y-65497607D02*
X130750476Y-65569035D01*
X130750476Y-65569035D02*
X130718571Y-65604750D01*
X130718571Y-65604750D02*
X130654761Y-65640464D01*
X130654761Y-65640464D02*
X130399523Y-65640464D01*
X130399523Y-65640464D02*
X130399523Y-64890464D01*
X130399523Y-64890464D02*
X130622857Y-64890464D01*
X130622857Y-64890464D02*
X130686666Y-64926178D01*
X130686666Y-64926178D02*
X130718571Y-64961892D01*
X130718571Y-64961892D02*
X130750476Y-65033321D01*
X130750476Y-65033321D02*
X130750476Y-65104750D01*
X130750476Y-65104750D02*
X130718571Y-65176178D01*
X130718571Y-65176178D02*
X130686666Y-65211892D01*
X130686666Y-65211892D02*
X130622857Y-65247607D01*
X130622857Y-65247607D02*
X130399523Y-65247607D01*
X131005714Y-64890464D02*
X131420476Y-64890464D01*
X131420476Y-64890464D02*
X131197142Y-65176178D01*
X131197142Y-65176178D02*
X131292857Y-65176178D01*
X131292857Y-65176178D02*
X131356666Y-65211892D01*
X131356666Y-65211892D02*
X131388571Y-65247607D01*
X131388571Y-65247607D02*
X131420476Y-65319035D01*
X131420476Y-65319035D02*
X131420476Y-65497607D01*
X131420476Y-65497607D02*
X131388571Y-65569035D01*
X131388571Y-65569035D02*
X131356666Y-65604750D01*
X131356666Y-65604750D02*
X131292857Y-65640464D01*
X131292857Y-65640464D02*
X131101428Y-65640464D01*
X131101428Y-65640464D02*
X131037619Y-65604750D01*
X131037619Y-65604750D02*
X131005714Y-65569035D01*
X128772381Y-63090464D02*
X128389524Y-63090464D01*
X128580952Y-63090464D02*
X128580952Y-62340464D01*
X128580952Y-62340464D02*
X128517143Y-62447607D01*
X128517143Y-62447607D02*
X128453333Y-62519035D01*
X128453333Y-62519035D02*
X128389524Y-62554750D01*
X129378571Y-62340464D02*
X129059523Y-62340464D01*
X129059523Y-62340464D02*
X129027619Y-62697607D01*
X129027619Y-62697607D02*
X129059523Y-62661892D01*
X129059523Y-62661892D02*
X129123333Y-62626178D01*
X129123333Y-62626178D02*
X129282857Y-62626178D01*
X129282857Y-62626178D02*
X129346666Y-62661892D01*
X129346666Y-62661892D02*
X129378571Y-62697607D01*
X129378571Y-62697607D02*
X129410476Y-62769035D01*
X129410476Y-62769035D02*
X129410476Y-62947607D01*
X129410476Y-62947607D02*
X129378571Y-63019035D01*
X129378571Y-63019035D02*
X129346666Y-63054750D01*
X129346666Y-63054750D02*
X129282857Y-63090464D01*
X129282857Y-63090464D02*
X129123333Y-63090464D01*
X129123333Y-63090464D02*
X129059523Y-63054750D01*
X129059523Y-63054750D02*
X129027619Y-63019035D01*
X130176190Y-62304750D02*
X129601904Y-63269035D01*
X130622857Y-62697607D02*
X130718571Y-62733321D01*
X130718571Y-62733321D02*
X130750476Y-62769035D01*
X130750476Y-62769035D02*
X130782380Y-62840464D01*
X130782380Y-62840464D02*
X130782380Y-62947607D01*
X130782380Y-62947607D02*
X130750476Y-63019035D01*
X130750476Y-63019035D02*
X130718571Y-63054750D01*
X130718571Y-63054750D02*
X130654761Y-63090464D01*
X130654761Y-63090464D02*
X130399523Y-63090464D01*
X130399523Y-63090464D02*
X130399523Y-62340464D01*
X130399523Y-62340464D02*
X130622857Y-62340464D01*
X130622857Y-62340464D02*
X130686666Y-62376178D01*
X130686666Y-62376178D02*
X130718571Y-62411892D01*
X130718571Y-62411892D02*
X130750476Y-62483321D01*
X130750476Y-62483321D02*
X130750476Y-62554750D01*
X130750476Y-62554750D02*
X130718571Y-62626178D01*
X130718571Y-62626178D02*
X130686666Y-62661892D01*
X130686666Y-62661892D02*
X130622857Y-62697607D01*
X130622857Y-62697607D02*
X130399523Y-62697607D01*
X131420476Y-63090464D02*
X131037619Y-63090464D01*
X131229047Y-63090464D02*
X131229047Y-62340464D01*
X131229047Y-62340464D02*
X131165238Y-62447607D01*
X131165238Y-62447607D02*
X131101428Y-62519035D01*
X131101428Y-62519035D02*
X131037619Y-62554750D01*
X128469286Y-60326178D02*
X128788333Y-60326178D01*
X128405476Y-60540464D02*
X128628809Y-59790464D01*
X128628809Y-59790464D02*
X128852143Y-60540464D01*
X129203095Y-59790464D02*
X129266905Y-59790464D01*
X129266905Y-59790464D02*
X129330714Y-59826178D01*
X129330714Y-59826178D02*
X129362619Y-59861892D01*
X129362619Y-59861892D02*
X129394524Y-59933321D01*
X129394524Y-59933321D02*
X129426429Y-60076178D01*
X129426429Y-60076178D02*
X129426429Y-60254750D01*
X129426429Y-60254750D02*
X129394524Y-60397607D01*
X129394524Y-60397607D02*
X129362619Y-60469035D01*
X129362619Y-60469035D02*
X129330714Y-60504750D01*
X129330714Y-60504750D02*
X129266905Y-60540464D01*
X129266905Y-60540464D02*
X129203095Y-60540464D01*
X129203095Y-60540464D02*
X129139286Y-60504750D01*
X129139286Y-60504750D02*
X129107381Y-60469035D01*
X129107381Y-60469035D02*
X129075476Y-60397607D01*
X129075476Y-60397607D02*
X129043572Y-60254750D01*
X129043572Y-60254750D02*
X129043572Y-60076178D01*
X129043572Y-60076178D02*
X129075476Y-59933321D01*
X129075476Y-59933321D02*
X129107381Y-59861892D01*
X129107381Y-59861892D02*
X129139286Y-59826178D01*
X129139286Y-59826178D02*
X129203095Y-59790464D01*
X130192143Y-59754750D02*
X129617857Y-60719035D01*
X130638810Y-60147607D02*
X130415476Y-60147607D01*
X130415476Y-60540464D02*
X130415476Y-59790464D01*
X130415476Y-59790464D02*
X130734524Y-59790464D01*
X130925953Y-59790464D02*
X131372619Y-59790464D01*
X131372619Y-59790464D02*
X131085477Y-60540464D01*
X128469286Y-57776178D02*
X128788333Y-57776178D01*
X128405476Y-57990464D02*
X128628809Y-57240464D01*
X128628809Y-57240464D02*
X128852143Y-57990464D01*
X129426429Y-57990464D02*
X129043572Y-57990464D01*
X129235000Y-57990464D02*
X129235000Y-57240464D01*
X129235000Y-57240464D02*
X129171191Y-57347607D01*
X129171191Y-57347607D02*
X129107381Y-57419035D01*
X129107381Y-57419035D02*
X129043572Y-57454750D01*
X130192143Y-57204750D02*
X129617857Y-58169035D01*
X130638810Y-57597607D02*
X130415476Y-57597607D01*
X130415476Y-57990464D02*
X130415476Y-57240464D01*
X130415476Y-57240464D02*
X130734524Y-57240464D01*
X131276905Y-57240464D02*
X131149286Y-57240464D01*
X131149286Y-57240464D02*
X131085477Y-57276178D01*
X131085477Y-57276178D02*
X131053572Y-57311892D01*
X131053572Y-57311892D02*
X130989762Y-57419035D01*
X130989762Y-57419035D02*
X130957858Y-57561892D01*
X130957858Y-57561892D02*
X130957858Y-57847607D01*
X130957858Y-57847607D02*
X130989762Y-57919035D01*
X130989762Y-57919035D02*
X131021667Y-57954750D01*
X131021667Y-57954750D02*
X131085477Y-57990464D01*
X131085477Y-57990464D02*
X131213096Y-57990464D01*
X131213096Y-57990464D02*
X131276905Y-57954750D01*
X131276905Y-57954750D02*
X131308810Y-57919035D01*
X131308810Y-57919035D02*
X131340715Y-57847607D01*
X131340715Y-57847607D02*
X131340715Y-57669035D01*
X131340715Y-57669035D02*
X131308810Y-57597607D01*
X131308810Y-57597607D02*
X131276905Y-57561892D01*
X131276905Y-57561892D02*
X131213096Y-57526178D01*
X131213096Y-57526178D02*
X131085477Y-57526178D01*
X131085477Y-57526178D02*
X131021667Y-57561892D01*
X131021667Y-57561892D02*
X130989762Y-57597607D01*
X130989762Y-57597607D02*
X130957858Y-57669035D01*
X128469286Y-55276178D02*
X128788333Y-55276178D01*
X128405476Y-55490464D02*
X128628809Y-54740464D01*
X128628809Y-54740464D02*
X128852143Y-55490464D01*
X129043572Y-54811892D02*
X129075476Y-54776178D01*
X129075476Y-54776178D02*
X129139286Y-54740464D01*
X129139286Y-54740464D02*
X129298810Y-54740464D01*
X129298810Y-54740464D02*
X129362619Y-54776178D01*
X129362619Y-54776178D02*
X129394524Y-54811892D01*
X129394524Y-54811892D02*
X129426429Y-54883321D01*
X129426429Y-54883321D02*
X129426429Y-54954750D01*
X129426429Y-54954750D02*
X129394524Y-55061892D01*
X129394524Y-55061892D02*
X129011667Y-55490464D01*
X129011667Y-55490464D02*
X129426429Y-55490464D01*
X130192143Y-54704750D02*
X129617857Y-55669035D01*
X130638810Y-55097607D02*
X130415476Y-55097607D01*
X130415476Y-55490464D02*
X130415476Y-54740464D01*
X130415476Y-54740464D02*
X130734524Y-54740464D01*
X131308810Y-54740464D02*
X130989762Y-54740464D01*
X130989762Y-54740464D02*
X130957858Y-55097607D01*
X130957858Y-55097607D02*
X130989762Y-55061892D01*
X130989762Y-55061892D02*
X131053572Y-55026178D01*
X131053572Y-55026178D02*
X131213096Y-55026178D01*
X131213096Y-55026178D02*
X131276905Y-55061892D01*
X131276905Y-55061892D02*
X131308810Y-55097607D01*
X131308810Y-55097607D02*
X131340715Y-55169035D01*
X131340715Y-55169035D02*
X131340715Y-55347607D01*
X131340715Y-55347607D02*
X131308810Y-55419035D01*
X131308810Y-55419035D02*
X131276905Y-55454750D01*
X131276905Y-55454750D02*
X131213096Y-55490464D01*
X131213096Y-55490464D02*
X131053572Y-55490464D01*
X131053572Y-55490464D02*
X130989762Y-55454750D01*
X130989762Y-55454750D02*
X130957858Y-55419035D01*
X128469286Y-52776178D02*
X128788333Y-52776178D01*
X128405476Y-52990464D02*
X128628809Y-52240464D01*
X128628809Y-52240464D02*
X128852143Y-52990464D01*
X129011667Y-52240464D02*
X129426429Y-52240464D01*
X129426429Y-52240464D02*
X129203095Y-52526178D01*
X129203095Y-52526178D02*
X129298810Y-52526178D01*
X129298810Y-52526178D02*
X129362619Y-52561892D01*
X129362619Y-52561892D02*
X129394524Y-52597607D01*
X129394524Y-52597607D02*
X129426429Y-52669035D01*
X129426429Y-52669035D02*
X129426429Y-52847607D01*
X129426429Y-52847607D02*
X129394524Y-52919035D01*
X129394524Y-52919035D02*
X129362619Y-52954750D01*
X129362619Y-52954750D02*
X129298810Y-52990464D01*
X129298810Y-52990464D02*
X129107381Y-52990464D01*
X129107381Y-52990464D02*
X129043572Y-52954750D01*
X129043572Y-52954750D02*
X129011667Y-52919035D01*
X130192143Y-52204750D02*
X129617857Y-53169035D01*
X130638810Y-52597607D02*
X130415476Y-52597607D01*
X130415476Y-52990464D02*
X130415476Y-52240464D01*
X130415476Y-52240464D02*
X130734524Y-52240464D01*
X131276905Y-52490464D02*
X131276905Y-52990464D01*
X131117381Y-52204750D02*
X130957858Y-52740464D01*
X130957858Y-52740464D02*
X131372619Y-52740464D01*
D14*
X133415714Y-39573866D02*
X134177619Y-39573866D01*
X127544819Y-79322381D02*
X127068628Y-79655714D01*
X127544819Y-79893809D02*
X126544819Y-79893809D01*
X126544819Y-79893809D02*
X126544819Y-79512857D01*
X126544819Y-79512857D02*
X126592438Y-79417619D01*
X126592438Y-79417619D02*
X126640057Y-79370000D01*
X126640057Y-79370000D02*
X126735295Y-79322381D01*
X126735295Y-79322381D02*
X126878152Y-79322381D01*
X126878152Y-79322381D02*
X126973390Y-79370000D01*
X126973390Y-79370000D02*
X127021009Y-79417619D01*
X127021009Y-79417619D02*
X127068628Y-79512857D01*
X127068628Y-79512857D02*
X127068628Y-79893809D01*
X127021009Y-78893809D02*
X127021009Y-78560476D01*
X127544819Y-78417619D02*
X127544819Y-78893809D01*
X127544819Y-78893809D02*
X126544819Y-78893809D01*
X126544819Y-78893809D02*
X126544819Y-78417619D01*
X127497200Y-78036666D02*
X127544819Y-77893809D01*
X127544819Y-77893809D02*
X127544819Y-77655714D01*
X127544819Y-77655714D02*
X127497200Y-77560476D01*
X127497200Y-77560476D02*
X127449580Y-77512857D01*
X127449580Y-77512857D02*
X127354342Y-77465238D01*
X127354342Y-77465238D02*
X127259104Y-77465238D01*
X127259104Y-77465238D02*
X127163866Y-77512857D01*
X127163866Y-77512857D02*
X127116247Y-77560476D01*
X127116247Y-77560476D02*
X127068628Y-77655714D01*
X127068628Y-77655714D02*
X127021009Y-77846190D01*
X127021009Y-77846190D02*
X126973390Y-77941428D01*
X126973390Y-77941428D02*
X126925771Y-77989047D01*
X126925771Y-77989047D02*
X126830533Y-78036666D01*
X126830533Y-78036666D02*
X126735295Y-78036666D01*
X126735295Y-78036666D02*
X126640057Y-77989047D01*
X126640057Y-77989047D02*
X126592438Y-77941428D01*
X126592438Y-77941428D02*
X126544819Y-77846190D01*
X126544819Y-77846190D02*
X126544819Y-77608095D01*
X126544819Y-77608095D02*
X126592438Y-77465238D01*
X127021009Y-77036666D02*
X127021009Y-76703333D01*
X127544819Y-76560476D02*
X127544819Y-77036666D01*
X127544819Y-77036666D02*
X126544819Y-77036666D01*
X126544819Y-77036666D02*
X126544819Y-76560476D01*
X126544819Y-76274761D02*
X126544819Y-75703333D01*
X127544819Y-75989047D02*
X126544819Y-75989047D01*
X135024819Y-80091904D02*
X135024819Y-79520476D01*
X136024819Y-79806190D02*
X135024819Y-79806190D01*
X136024819Y-78615714D02*
X135548628Y-78949047D01*
X136024819Y-79187142D02*
X135024819Y-79187142D01*
X135024819Y-79187142D02*
X135024819Y-78806190D01*
X135024819Y-78806190D02*
X135072438Y-78710952D01*
X135072438Y-78710952D02*
X135120057Y-78663333D01*
X135120057Y-78663333D02*
X135215295Y-78615714D01*
X135215295Y-78615714D02*
X135358152Y-78615714D01*
X135358152Y-78615714D02*
X135453390Y-78663333D01*
X135453390Y-78663333D02*
X135501009Y-78710952D01*
X135501009Y-78710952D02*
X135548628Y-78806190D01*
X135548628Y-78806190D02*
X135548628Y-79187142D01*
X136024819Y-77615714D02*
X135548628Y-77949047D01*
X136024819Y-78187142D02*
X135024819Y-78187142D01*
X135024819Y-78187142D02*
X135024819Y-77806190D01*
X135024819Y-77806190D02*
X135072438Y-77710952D01*
X135072438Y-77710952D02*
X135120057Y-77663333D01*
X135120057Y-77663333D02*
X135215295Y-77615714D01*
X135215295Y-77615714D02*
X135358152Y-77615714D01*
X135358152Y-77615714D02*
X135453390Y-77663333D01*
X135453390Y-77663333D02*
X135501009Y-77710952D01*
X135501009Y-77710952D02*
X135548628Y-77806190D01*
X135548628Y-77806190D02*
X135548628Y-78187142D01*
X135977200Y-77234761D02*
X136024819Y-77091904D01*
X136024819Y-77091904D02*
X136024819Y-76853809D01*
X136024819Y-76853809D02*
X135977200Y-76758571D01*
X135977200Y-76758571D02*
X135929580Y-76710952D01*
X135929580Y-76710952D02*
X135834342Y-76663333D01*
X135834342Y-76663333D02*
X135739104Y-76663333D01*
X135739104Y-76663333D02*
X135643866Y-76710952D01*
X135643866Y-76710952D02*
X135596247Y-76758571D01*
X135596247Y-76758571D02*
X135548628Y-76853809D01*
X135548628Y-76853809D02*
X135501009Y-77044285D01*
X135501009Y-77044285D02*
X135453390Y-77139523D01*
X135453390Y-77139523D02*
X135405771Y-77187142D01*
X135405771Y-77187142D02*
X135310533Y-77234761D01*
X135310533Y-77234761D02*
X135215295Y-77234761D01*
X135215295Y-77234761D02*
X135120057Y-77187142D01*
X135120057Y-77187142D02*
X135072438Y-77139523D01*
X135072438Y-77139523D02*
X135024819Y-77044285D01*
X135024819Y-77044285D02*
X135024819Y-76806190D01*
X135024819Y-76806190D02*
X135072438Y-76663333D01*
X143200000Y-71650000D02*
X142190000Y-71650000D01*
X125400000Y-71650000D02*
X126400000Y-71650000D01*
X143200000Y-70650000D02*
X143200000Y-71650000D01*
X125400000Y-70600000D02*
X125400000Y-71650000D01*
X143200000Y-38600000D02*
X142250000Y-38600000D01*
X125400000Y-38600000D02*
X126400000Y-38600000D01*
X143200000Y-38600000D02*
X143200000Y-39600000D01*
X125400000Y-38600000D02*
X125400000Y-39600000D01*
X130550000Y-35700000D02*
X130550000Y-37000000D01*
X130550000Y-37000000D02*
X138050000Y-37000000D01*
X138050000Y-37000000D02*
X138050000Y-35700000D01*
X138050000Y-35700000D02*
X130550000Y-35700000D01*
X133800000Y-36050000D02*
X134800000Y-36050000D01*
X134800000Y-36050000D02*
X134300000Y-36700000D01*
X134300000Y-36700000D02*
X133800000Y-36050000D01*
X133950000Y-36200000D02*
X134650000Y-36200000D01*
X134050000Y-36350000D02*
X134550000Y-36350000D01*
X134150000Y-36500000D02*
X134450000Y-36500000D01*
X128720000Y-80640000D02*
X128720000Y-74640000D01*
X128720000Y-74640000D02*
X128470000Y-74640000D01*
X128720000Y-80640000D02*
X128470000Y-80640000D01*
X125220000Y-80640000D02*
X125470000Y-80640000D01*
X125220000Y-80640000D02*
X125220000Y-74640000D01*
X125220000Y-74640000D02*
X125470000Y-74640000D01*
X142020000Y-76080000D02*
X142020000Y-82080000D01*
X142020000Y-82080000D02*
X130020000Y-82080000D01*
X130020000Y-82080000D02*
X130020000Y-76080000D01*
X130020000Y-76080000D02*
X142020000Y-76080000D01*
D15*
X141911400Y-42422000D03*
X141911400Y-50042000D03*
X141911400Y-52582000D03*
X141911400Y-55122000D03*
X141911400Y-57662000D03*
X141911400Y-60202000D03*
X141911400Y-62742000D03*
X141911400Y-65282000D03*
X141911400Y-67822000D03*
X141911400Y-70362000D03*
X126691400Y-70362000D03*
X126691400Y-67822000D03*
X126691400Y-65282000D03*
X126691400Y-62742000D03*
X126691400Y-60202000D03*
X126691400Y-57662000D03*
X126691400Y-55122000D03*
X126691400Y-52582000D03*
X126691400Y-50042000D03*
X126691400Y-47502000D03*
X126691400Y-44962000D03*
X126691400Y-42422000D03*
D16*
X126970000Y-74390000D03*
X126970000Y-80890000D03*
D17*
X133520000Y-77330000D03*
X140520000Y-77330000D03*
D18*
X131720000Y-75230000D03*
X130220000Y-79430000D03*
X138720000Y-75230000D03*
X135720000Y-75230000D03*
D17*
X140520000Y-79080000D03*
X133520000Y-79080000D03*
D18*
X138720000Y-81180000D03*
X135720000Y-81180000D03*
X131720000Y-81180000D03*
X130220000Y-76980000D03*
%LPC*%
D14*
X57836779Y-79869819D02*
X57836779Y-78869819D01*
X57836779Y-78869819D02*
X58170112Y-79584104D01*
X58170112Y-79584104D02*
X58503445Y-78869819D01*
X58503445Y-78869819D02*
X58503445Y-79869819D01*
X59170112Y-78869819D02*
X59360588Y-78869819D01*
X59360588Y-78869819D02*
X59455826Y-78917438D01*
X59455826Y-78917438D02*
X59551064Y-79012676D01*
X59551064Y-79012676D02*
X59598683Y-79203152D01*
X59598683Y-79203152D02*
X59598683Y-79536485D01*
X59598683Y-79536485D02*
X59551064Y-79726961D01*
X59551064Y-79726961D02*
X59455826Y-79822200D01*
X59455826Y-79822200D02*
X59360588Y-79869819D01*
X59360588Y-79869819D02*
X59170112Y-79869819D01*
X59170112Y-79869819D02*
X59074874Y-79822200D01*
X59074874Y-79822200D02*
X58979636Y-79726961D01*
X58979636Y-79726961D02*
X58932017Y-79536485D01*
X58932017Y-79536485D02*
X58932017Y-79203152D01*
X58932017Y-79203152D02*
X58979636Y-79012676D01*
X58979636Y-79012676D02*
X59074874Y-78917438D01*
X59074874Y-78917438D02*
X59170112Y-78869819D01*
X59979636Y-79584104D02*
X60455826Y-79584104D01*
X59884398Y-79869819D02*
X60217731Y-78869819D01*
X60217731Y-78869819D02*
X60551064Y-79869819D01*
X60884398Y-79869819D02*
X60884398Y-78869819D01*
X61455826Y-79869819D02*
X61027255Y-79298390D01*
X61455826Y-78869819D02*
X60884398Y-79441247D01*
X61884398Y-79869819D02*
X61884398Y-78869819D01*
D19*
X119879347Y-92507307D03*
D20*
X132730127Y-90689103D03*
D21*
X126500000Y-91480000D03*
D20*
X124069873Y-85689103D03*
X129450000Y-86370450D03*
D19*
X128920653Y-97727307D03*
D22*
X131263140Y-94230000D03*
X121736860Y-88730000D03*
D23*
X141911400Y-42422000D03*
X141911400Y-44962000D03*
X141911400Y-47502000D03*
X141911400Y-50042000D03*
X141911400Y-52582000D03*
X141911400Y-55122000D03*
X141911400Y-57662000D03*
X141911400Y-60202000D03*
X141911400Y-62742000D03*
X141911400Y-65282000D03*
X141911400Y-67822000D03*
X141911400Y-70362000D03*
X126691400Y-70362000D03*
X126691400Y-67822000D03*
X126691400Y-65282000D03*
X126691400Y-62742000D03*
X126691400Y-60202000D03*
X126691400Y-57662000D03*
X126691400Y-55122000D03*
X126691400Y-52582000D03*
X126691400Y-50042000D03*
X126691400Y-47502000D03*
X126691400Y-44962000D03*
X126691400Y-42422000D03*
D19*
X74780000Y-36520000D03*
D20*
X85000000Y-44520000D03*
D21*
X80000000Y-40720000D03*
D20*
X75000000Y-44520000D03*
X80000000Y-46620000D03*
D19*
X85220000Y-36520000D03*
D22*
X85500000Y-40720000D03*
X74500000Y-40720000D03*
D19*
X38780000Y-38570000D03*
D20*
X49000000Y-46570000D03*
D21*
X44000000Y-42770000D03*
D20*
X39000000Y-46570000D03*
X44000000Y-48670000D03*
D19*
X49220000Y-38570000D03*
D22*
X49500000Y-42770000D03*
X38500000Y-42770000D03*
D19*
X56780000Y-26340000D03*
D20*
X67000000Y-34340000D03*
D21*
X62000000Y-30540000D03*
D20*
X57000000Y-34340000D03*
X62000000Y-36440000D03*
D19*
X67220000Y-26340000D03*
D22*
X67500000Y-30540000D03*
X56500000Y-30540000D03*
D19*
X74780000Y-19530000D03*
D20*
X85000000Y-27530000D03*
D21*
X80000000Y-23730000D03*
D20*
X75000000Y-27530000D03*
X80000000Y-29630000D03*
D19*
X85220000Y-19530000D03*
D22*
X85500000Y-23730000D03*
X74500000Y-23730000D03*
D19*
X92780000Y-25140000D03*
D20*
X103000000Y-33140000D03*
D21*
X98000000Y-29340000D03*
D20*
X93000000Y-33140000D03*
X98000000Y-35240000D03*
D19*
X103220000Y-25140000D03*
D22*
X103500000Y-29340000D03*
X92500000Y-29340000D03*
D19*
X110780000Y-27520000D03*
D20*
X121000000Y-35520000D03*
D21*
X116000000Y-31720000D03*
D20*
X111000000Y-35520000D03*
X116000000Y-37620000D03*
D19*
X121220000Y-27520000D03*
D22*
X121500000Y-31720000D03*
X110500000Y-31720000D03*
D19*
X38780000Y-55570000D03*
D20*
X49000000Y-63570000D03*
D21*
X44000000Y-59770000D03*
D20*
X39000000Y-63570000D03*
X44000000Y-65670000D03*
D19*
X49220000Y-55570000D03*
D22*
X49500000Y-59770000D03*
X38500000Y-59770000D03*
D19*
X56780000Y-43340000D03*
D20*
X67000000Y-51340000D03*
D21*
X62000000Y-47540000D03*
D20*
X57000000Y-51340000D03*
X62000000Y-53440000D03*
D19*
X67220000Y-43340000D03*
D22*
X67500000Y-47540000D03*
X56500000Y-47540000D03*
D19*
X92780000Y-42140000D03*
D20*
X103000000Y-50140000D03*
D21*
X98000000Y-46340000D03*
D20*
X93000000Y-50140000D03*
X98000000Y-52240000D03*
D19*
X103220000Y-42140000D03*
D22*
X103500000Y-46340000D03*
X92500000Y-46340000D03*
D19*
X110780000Y-44520000D03*
D20*
X121000000Y-52520000D03*
D21*
X116000000Y-48720000D03*
D20*
X111000000Y-52520000D03*
X116000000Y-54620000D03*
D19*
X121220000Y-44520000D03*
D22*
X121500000Y-48720000D03*
X110500000Y-48720000D03*
D19*
X56780000Y-60345000D03*
D20*
X67000000Y-68345000D03*
D21*
X62000000Y-64545000D03*
D20*
X57000000Y-68345000D03*
X62000000Y-70445000D03*
D19*
X67220000Y-60345000D03*
D22*
X67500000Y-64545000D03*
X56500000Y-64545000D03*
D19*
X74780000Y-53520000D03*
D20*
X85000000Y-61520000D03*
D21*
X80000000Y-57720000D03*
D20*
X75000000Y-61520000D03*
X80000000Y-63620000D03*
D19*
X85220000Y-53520000D03*
D22*
X85500000Y-57720000D03*
X74500000Y-57720000D03*
D19*
X92780000Y-59145000D03*
D20*
X103000000Y-67145000D03*
D21*
X98000000Y-63345000D03*
D20*
X93000000Y-67145000D03*
X98000000Y-69245000D03*
D19*
X103220000Y-59145000D03*
D22*
X103500000Y-63345000D03*
X92500000Y-63345000D03*
D19*
X110780000Y-61520000D03*
D20*
X121000000Y-69520000D03*
D21*
X116000000Y-65720000D03*
D20*
X111000000Y-69520000D03*
X116000000Y-71620000D03*
D19*
X121220000Y-61520000D03*
D22*
X121500000Y-65720000D03*
X110500000Y-65720000D03*
D19*
X101810827Y-86475853D03*
D20*
X113753142Y-81393577D03*
D21*
X107940000Y-83770000D03*
D20*
X104093883Y-78805387D03*
X109467032Y-78071038D03*
D19*
X111895093Y-89177924D03*
D22*
X113252592Y-85193505D03*
X102627408Y-82346495D03*
D19*
X38780000Y-72575000D03*
D20*
X49000000Y-80575000D03*
D21*
X44000000Y-76775000D03*
D20*
X39000000Y-80575000D03*
X44000000Y-82675000D03*
D19*
X49220000Y-72575000D03*
D22*
X49500000Y-76775000D03*
X38500000Y-76775000D03*
D24*
X126970000Y-74390000D03*
X126970000Y-80890000D03*
D25*
X133520000Y-77330000D03*
X140520000Y-77330000D03*
D26*
X131720000Y-75230000D03*
X130220000Y-79430000D03*
X138720000Y-75230000D03*
X135720000Y-75230000D03*
D25*
X140520000Y-79080000D03*
X133520000Y-79080000D03*
D26*
X138720000Y-81180000D03*
X135720000Y-81180000D03*
X131720000Y-81180000D03*
X130220000Y-76980000D03*
%LPD*%
M02*
